<svg width="16" height="16" viewBox="0 0 16 16" xmlns="http://www.w3.org/2000/svg">
<path d="M6.16667 8.13333H1.5C1.33431 8.13333 1.2 7.99902 1.2 7.83333V1.5C1.2 1.33431 1.33431 1.2 1.5 1.2H6.16667C6.33235 1.2 6.46667 1.33431 6.46667 1.5V7.83333C6.46667 7.99902 6.33235 8.13333 6.16667 8.13333ZM6.16667 14.8H1.5C1.33431 14.8 1.2 14.6657 1.2 14.5V11.5C1.2 11.3343 1.33431 11.2 1.5 11.2H6.16667C6.33235 11.2 6.46667 11.3343 6.46667 11.5V14.5C6.46667 14.6657 6.33235 14.8 6.16667 14.8ZM14.5 14.8H9.83333C9.66765 14.8 9.53333 14.6657 9.53333 14.5V8.16667C9.53333 8.00098 9.66765 7.86667 9.83333 7.86667H14.5C14.6657 7.86667 14.8 8.00098 14.8 8.16667V14.5C14.8 14.6657 14.6657 14.8 14.5 14.8ZM9.53333 4.5V1.5C9.53333 1.33431 9.66765 1.2 9.83333 1.2H14.5C14.6657 1.2 14.8 1.33431 14.8 1.5V4.5C14.8 4.66569 14.6657 4.8 14.5 4.8H9.83333C9.66765 4.8 9.53333 4.66569 9.53333 4.5Z" stroke-width="1.4"/>
</svg>
