
<svg xmlns="http://www.w3.org/2000/svg" viewBox="0 0 16 16">
  <path d="M5.778 0A5.62 5.62 0 0 0 2.69.912L6.35 4.56a1.198 1.198 0 0 1 .356 1.301c-.052.151-.135.29-.242.409a1.202 1.202 0 0 1-1.716-.114L.973 2.508a5.595 5.595 0 0 0-.972 3.249A5.77 5.77 0 0 0 1.7 9.821a5.81 5.81 0 0 0 4.078 1.693c.5.003 1-.055 1.487-.171l3.833 3.819a2.877 2.877 0 0 0 4.06 0 2.857 2.857 0 0 0 0-4.047l-3.832-3.82c.117-.484.175-.982.172-1.481A5.681 5.681 0 0 0 9.864 1.71 5.72 5.72 0 0 0 5.778 0Zm4.576 5.757c0 .405-.058.808-.171 1.197l-.172.627.458.456 3.832 3.819a1.642 1.642 0 0 1 .515 1.197 1.546 1.546 0 0 1-.515 1.197 1.659 1.659 0 0 1-1.855.38 1.66 1.66 0 0 1-.547-.38l-3.833-3.82-.458-.455-.629.17c-.39.114-.794.171-1.2.172a4.74 4.74 0 0 1-3.261-1.311 4.349 4.349 0 0 1-1.373-3.249c0-.424.058-.846.171-1.254l2.517 2.508a2.368 2.368 0 0 0 2.585.61 2.37 2.37 0 0 0 .79-.496 2.359 2.359 0 0 0 .435-2.61 2.36 2.36 0 0 0-.55-.753L4.578 1.254c.37-.117.756-.174 1.144-.171a4.74 4.74 0 0 1 3.26 1.311 4.83 4.83 0 0 1 1.373 3.363Z"/>
</svg>

