<svg width="19" height="19" viewBox="0 0 19 19" xmlns="http://www.w3.org/2000/svg">
<path d="M14.958 4.04199C14.2413 3.32523 13.3903 2.75666 12.4538 2.36875C11.5174 1.98084 10.5136 1.78119 9.49997 1.78119C8.48632 1.78119 7.48259 1.98084 6.5461 2.36875C5.6096 2.75666 4.75869 3.32523 4.04192 4.04199C3.32516 4.75875 2.7566 5.60967 2.36869 6.54616C1.98078 7.48265 1.78113 8.48638 1.78113 9.50003C1.78113 10.5137 1.98078 11.5174 2.36869 12.4539C2.7566 13.3904 3.32516 14.2413 4.04192 14.9581C4.75869 15.6748 5.6096 16.2434 6.5461 16.6313C7.48259 17.0192 8.48632 17.2189 9.49997 17.2189C10.5136 17.2189 11.5174 17.0192 12.4538 16.6313C13.3903 16.2434 14.2413 15.6748 14.958 14.9581C15.6748 14.2413 16.2433 13.3904 16.6313 12.4539C17.0192 11.5174 17.2188 10.5137 17.2188 9.50003C17.2188 8.48638 17.0192 7.48265 16.6313 6.54616C16.2433 5.60967 15.6748 4.75875 14.958 4.04199ZM7.12497 15.586V11.2813H11.875V15.5859C10.3473 16.1798 8.65262 16.1798 7.12497 15.5859V15.586ZM10.6875 10.0938H8.31247V7.49197L10.6875 6.30447V10.0938ZM14.1182 14.1183C13.7968 14.4395 13.443 14.7267 13.0625 14.9751V11.2813C13.0621 10.9664 12.9369 10.6646 12.7143 10.442C12.4916 10.2194 12.1898 10.0941 11.875 10.0938V5.34378C11.875 5.24257 11.8491 5.14305 11.7998 5.05465C11.7505 4.96625 11.6795 4.89192 11.5934 4.83872C11.5073 4.78551 11.409 4.7552 11.3079 4.75065C11.2068 4.74611 11.1062 4.76748 11.0157 4.81275L7.45317 6.594C7.35455 6.64331 7.27161 6.71911 7.21365 6.8129C7.15568 6.90669 7.12498 7.01477 7.12497 7.12503V10.0938C6.81014 10.0941 6.5083 10.2194 6.28567 10.442C6.06305 10.6646 5.93783 10.9664 5.93747 11.2813V14.9751C5.55695 14.7267 5.20315 14.4395 4.88171 14.1183C3.96829 13.2049 3.34624 12.0411 3.09422 10.7742C2.84221 9.50725 2.97154 8.19403 3.46588 7.00059C3.96021 5.80716 4.79733 4.78711 5.87139 4.06944C6.94546 3.35178 8.20821 2.96872 9.49997 2.96872C10.7917 2.96872 12.0545 3.35178 13.1285 4.06944C14.2026 4.78711 15.0397 5.80716 15.5341 7.00059C16.0284 8.19403 16.1577 9.50725 15.9057 10.7742C15.6537 12.0411 15.0317 13.2049 14.1182 14.1183Z"/>
</svg>
