<svg width="20" height="20" viewBox="0 0 20 20" xmlns="http://www.w3.org/2000/svg">
<path d="M8.31 8.93C9.33 10.57 9.18 12.5 7.96 13.28C6.74 14.04 4.92 13.33 3.89 11.69C2.87 10.05 3.03 8.1 4.25 7.34C5.47 6.58 7.29 7.29 8.31 8.93ZM10 15.75C12 15.75 12.5 15 12.5 15C12.5 15 12 17 10 17C8 17 7.5 15.03 7.5 15C7.5 15 8 15.75 10 15.75ZM15.75 7.34C16.97 8.1 17.13 10.05 16.11 11.69C15.08 13.33 13.26 14.04 12.04 13.28C10.82 12.5 10.67 10.57 11.69 8.93C12.71 7.29 14.53 6.58 15.75 7.34ZM10 18C12.5 18 18 12.86 18 9C18 5.14 14.41 2 10 2C5.59 2 2 5.14 2 9C2 12.86 7.5 18 10 18ZM10 0C15.5 0 20 4.04 20 9C20 13.08 14.32 20 10 20C5.68 20 0 13.08 0 9C0 4.04 4.5 0 10 0Z"/>
</svg>
