
<svg xmlns="http://www.w3.org/2000/svg" viewBox="0 0 19 19">
  <path d="M8.515 9.5a.984.984 0 1 0 1.97 0 .984.984 0 0 0-1.97 0Zm4.102 0a.984.984 0 1 0 1.97 0 .984.984 0 0 0-1.97 0Zm-8.203 0a.984.984 0 1 0 1.969 0 .984.984 0 0 0-1.97 0Zm13.56-3.56A9.19 9.19 0 0 0 9.5.312h-.041A9.166 9.166 0 0 0 .312 9.543a9.216 9.216 0 0 0 .985 4.1v3.117a.943.943 0 0 0 .943.943h3.12a9.216 9.216 0 0 0 4.099.985h.043c1.228 0 2.42-.238 3.542-.704a9.114 9.114 0 0 0 2.928-1.952 9.166 9.166 0 0 0 2.715-6.49 9.154 9.154 0 0 0-.713-3.602Zm-3.099 8.982A7.589 7.589 0 0 1 9.5 17.13h-.035a7.656 7.656 0 0 1-3.55-.892l-.172-.092H2.855v-2.888l-.092-.172a7.656 7.656 0 0 1-.892-3.55 7.582 7.582 0 0 1 2.207-5.41 7.572 7.572 0 0 1 5.39-2.254h.034A7.592 7.592 0 0 1 14.9 4.104a7.597 7.597 0 0 1 2.233 5.43 7.6 7.6 0 0 1-2.258 5.388Z"/>
</svg>

