<svg viewBox="0 0 24 24" xmlns="http://www.w3.org/2000/svg">
<path d="M12 22C13.1 22 14 21.1 14 20H10C10 21.1 10.89 22 12 22ZM18 16V11C18 7.93 16.36 5.36 13.5 4.68V4C13.5 3.17 12.83 2.5 12 2.5C11.17 2.5 10.5 3.17 10.5 4V4.68C7.63 5.36 6 7.92 6 11V16L4 18V19H20V18L18 16Z" />
<path d="M19.5 18.2071V18.5H4.5V18.2071L6.35355 16.3536L6.5 16.2071V16V11C6.5 8.09437 8.02219 5.78092 10.6153 5.16653L11 5.07538V4.68V4C11 3.44614 11.4461 3 12 3C12.5539 3 13 3.44614 13 4V4.68V5.07506L13.3843 5.16644C15.9681 5.78076 17.5 8.10482 17.5 11V16V16.2071L17.6464 16.3536L19.5 18.2071ZM13.4135 20.5C13.2061 21.0806 12.6488 21.5 12 21.5C11.3443 21.5 10.7907 21.0813 10.5854 20.5H13.4135Z" />
</svg>
