
<svg xmlns="http://www.w3.org/2000/svg" viewBox="0 0 16 17">
  <path d="M9.501 16.417H6.5a.84.84 0 0 1-.517-.177.797.797 0 0 1-.289-.452l-.335-1.507a6.65 6.65 0 0 1-1.266-.71l-1.515.468a.848.848 0 0 1-.548-.016.818.818 0 0 1-.417-.346L.11 11.157a.784.784 0 0 1 .16-.992l1.174-1.04a6.289 6.289 0 0 1 0-1.418L.268 6.67a.784.784 0 0 1-.16-.992l1.502-2.523a.818.818 0 0 1 .417-.346.848.848 0 0 1 .548-.016l1.515.468c.2-.144.41-.278.626-.4.209-.114.423-.217.643-.309l.336-1.505a.797.797 0 0 1 .288-.453A.84.84 0 0 1 6.5.417H9.5a.84.84 0 0 1 .517.177.797.797 0 0 1 .288.453l.34 1.506c.447.19.872.428 1.265.71l1.516-.468a.849.849 0 0 1 .547.016.818.818 0 0 1 .416.346l1.501 2.522a.788.788 0 0 1-.159.992l-1.175 1.04a6.28 6.28 0 0 1 0 1.417l1.175 1.04c.285.255.35.666.16.991l-1.502 2.523a.819.819 0 0 1-.416.346.848.848 0 0 1-.548.016l-1.515-.468a6.633 6.633 0 0 1-1.265.709l-.34 1.503a.797.797 0 0 1-.288.452.84.84 0 0 1-.517.177ZM4.39 11.8l.676.48a5.16 5.16 0 0 0 .953.537l.77.327.377 1.673h1.673l.377-1.674.77-.327c.335-.144.654-.322.95-.533l.677-.48 1.683.52.837-1.406-1.305-1.154.092-.81a4.609 4.609 0 0 0 0-1.066l-.092-.81 1.306-1.156-.838-1.407-1.683.52-.677-.48a5.174 5.174 0 0 0-.95-.537l-.77-.327-.377-1.673H7.165l-.38 1.674-.767.326a4.996 4.996 0 0 0-.95.533l-.677.48-1.683-.52L1.87 5.92l1.305 1.153-.092.81a4.606 4.606 0 0 0 0 1.066l.092.81-1.305 1.154.837 1.406 1.682-.52Zm3.608-.183a3.35 3.35 0 0 1-2.332-.937A3.152 3.152 0 0 1 4.7 8.417c0-.849.347-1.663.966-2.263a3.35 3.35 0 0 1 2.332-.937 3.35 3.35 0 0 1 2.333.937c.618.6.966 1.414.966 2.263s-.348 1.663-.966 2.263a3.35 3.35 0 0 1-2.333.937Zm0-4.8c-.323 0-.638.093-.908.265-.27.173-.48.419-.607.707a1.556 1.556 0 0 0-.105.915c.057.308.207.593.43.82.224.226.51.383.826.453.314.07.643.048.946-.062.302-.11.564-.304.754-.558a1.57 1.57 0 0 0 .314-.868v.32-.392c0-.424-.174-.831-.483-1.131-.31-.3-.73-.469-1.167-.469Z"/>
</svg>

