
<svg xmlns="http://www.w3.org/2000/svg" viewBox="0 0 20 21">
  <path d="M12.321 13.274a1.607 1.607 0 0 1 1.608 1.607v1.073l-.006.077c-.222 1.52-1.586 2.25-3.875 2.25-2.28 0-3.667-.722-3.967-2.223l-.01-.105V14.88a1.607 1.607 0 0 1 1.608-1.607h4.642Zm0 1.072H7.68a.536.536 0 0 0-.536.535v1.015c.2.857 1.107 1.313 2.905 1.313 1.797 0 2.664-.45 2.81-1.297v-1.03a.535.535 0 0 0-.537-.536Zm.71-5.358h3.933a1.607 1.607 0 0 1 1.607 1.608v1.072l-.005.078c-.222 1.519-1.586 2.249-3.875 2.249l-.225-.002a2.325 2.325 0 0 0-1.085-1.177c.368.071.803.107 1.31.107 1.797 0 2.664-.45 2.809-1.297v-1.03a.535.535 0 0 0-.536-.536h-3.75c0-.376-.064-.737-.183-1.072Zm-9.995 0h3.933a3.2 3.2 0 0 0-.178.885l-.005.187h-3.75a.536.536 0 0 0-.536.536v1.014c.2.857 1.107 1.313 2.905 1.313.444 0 .831-.027 1.166-.082-.468.254-.834.661-1.038 1.152l-.129.002c-2.28 0-3.666-.722-3.965-2.223l-.01-.105v-1.071a1.607 1.607 0 0 1 1.607-1.608ZM10 7.56a2.5 2.5 0 1 1 0 5 2.5 2.5 0 0 1 0-5Zm0 1.071a1.429 1.429 0 1 0 0 2.857 1.429 1.429 0 0 0 0-2.857Zm4.643-5.357a2.5 2.5 0 1 1 0 5 2.5 2.5 0 0 1 0-5Zm-9.286 0a2.5 2.5 0 1 1 0 5 2.5 2.5 0 0 1 0-5Zm9.286 1.072a1.429 1.429 0 1 0 0 2.857 1.429 1.429 0 0 0 0-2.857Zm-9.286 0a1.429 1.429 0 1 0 0 2.857 1.429 1.429 0 0 0 0-2.857Z"/>
</svg>

