<?xml version="1.0" encoding="iso-8859-1"?>
<!-- Generator: Adobe Illustrator 19.0.0, SVG Export Plug-In . SVG Version: 6.00 Build 0)  -->
<svg version="1.1" id="Layer_1" xmlns="http://www.w3.org/2000/svg" xmlns:xlink="http://www.w3.org/1999/xlink" x="0px" y="0px"
	 viewBox="0 0 511.503 511.503" style="enable-background:new 0 0 511.503 511.503;" xml:space="preserve">
<g>
	<g>
		<g>
			<path d="M461.906,429.092l4.341-4.341c3.333-3.332,3.333-8.735,0-12.068l-20.23-20.23l9.526-9.527
				c2.468-2.468,3.184-6.191,1.808-9.398l-13.693-31.912l30.023,30.023c6.675,6.658,17.468,6.658,24.135,0.008l8.686-8.686
				c6.669-6.669,6.669-17.465,0-24.134L378.512,210.837l4.343-4.343c3.332-3.332,3.332-8.735,0-12.068l-20.753-20.753
				c-3.333-3.333-8.736-3.332-12.068,0l-4.339,4.34l-8.607-8.607c-6.676-6.659-17.475-6.659-24.134,0l-8.684,8.675
				c-6.661,6.678-6.661,17.471-0.011,24.138l8.618,8.613l-3.495,3.496l-32.9-32.9c-5.976-5.997-15.605-5.133-21.591,0.853
				l-72.619,72.619c-5.98,5.98-6.837,15.586-0.864,21.58l32.913,32.913l-3.492,3.492l-8.606-8.611
				c-6.678-6.661-17.477-6.661-24.136-0.002l-8.684,8.675c-6.661,6.678-6.661,17.471-0.011,24.138l8.622,8.617l-4.338,4.338
				c-3.332,3.332-3.332,8.734-0.001,12.067l20.745,20.753c3.332,3.334,8.736,3.334,12.069,0.001l4.34-4.34l127.985,127.993
				c6.681,6.647,17.462,6.647,24.127,0.016l8.696-8.704c6.667-6.669,6.667-17.464-0.002-24.132l-30.033-30.033l31.923,13.702
				c3.208,1.377,6.932,0.661,9.4-1.808l9.53-9.531l20.227,20.227c3.332,3.332,8.735,3.332,12.068,0l4.336-4.336l45.166,45.166
				c3.332,3.333,8.736,3.333,12.068,0l20.753-20.753c3.332-3.333,3.332-8.735,0-12.068L461.906,429.092z M494.432,350.892
				l-8.677,8.677c0.001-0.001-32.912-32.912-65.358-65.356l-62.626-62.633l6.319-6.322l2.354-2.354L494.432,350.892z
				 M316.333,190.156c0.004,0.004,8.686-8.68,8.686-8.68c0,0,7.886,7.883,8.609,8.605l-8.682,8.683L316.333,190.156z
				 M195.186,266.121l70.927-70.927l31.201,31.201l-70.926,70.929L195.186,266.121z M181.466,325.023
				c0.004,0.004,8.686-8.68,8.686-8.68c0,0,7.89,7.89,8.609,8.61l-8.68,8.68L181.466,325.023z M191.777,356.074l3.465-3.465
				c0.328-0.245,0.648-0.507,0.946-0.805l20.745-20.745c0.299-0.299,0.562-0.62,0.808-0.95l13.809-13.81
				c0.327-0.244,0.646-0.505,0.943-0.803l82.995-82.995c0.302-0.302,0.567-0.626,0.814-0.959l13.782-13.782
				c0.338-0.25,0.666-0.518,0.972-0.824l20.745-20.753c0.297-0.297,0.557-0.615,0.801-0.942l3.467-3.467l8.685,8.685l-4.311,4.311
				c-0.012,0.011-0.024,0.021-0.036,0.032l-8.298,8.301L225.576,339.637c-0.012,0.011-0.024,0.021-0.036,0.032l-8.298,8.301
				l-16.787,16.787L191.777,356.074z M350.885,494.448c0.011-0.011-127.987-127.995-127.987-127.995l6.326-6.328l2.354-2.354
				l1.8,1.8l126.188,126.188L350.885,494.448z M374.943,439.397l-65.867-28.271l-64.326-64.319l-1.037-1.037l102.05-102.05
				l65.365,65.365l28.26,65.86l-10.601,10.603c-0.327,0.244-0.645,0.505-0.941,0.801l-41.498,41.498
				c-0.302,0.302-0.568,0.627-0.815,0.961L374.943,439.397z M404.522,433.953l29.428-29.431l14.195,14.195l-29.43,29.43
				L404.522,433.953z M480.285,488.977l-39.132-39.132l4.343-4.343l4.342-4.342l39.132,39.132L480.285,488.977z"/>
			<path d="M408.789,377.681c3.333-3.332,3.334-8.735,0.002-12.068c-3.332-3.333-8.735-3.334-12.068-0.002l-31.121,31.113
				c-3.333,3.332-3.334,8.735-0.002,12.068c3.332,3.333,8.735,3.334,12.068,0.002L408.789,377.681z"/>
			<path d="M393.228,339.669c-3.332-3.333-8.735-3.333-12.068,0l-41.498,41.498c-3.332,3.332-3.332,8.735,0,12.068
				c3.332,3.333,8.735,3.333,12.068,0l41.498-41.498C396.56,348.405,396.56,343.002,393.228,339.669z"/>
			<path d="M377.672,313.734c-3.332-3.332-8.735-3.332-12.068,0l-51.874,51.874c-3.333,3.332-3.333,8.735,0,12.068
				c3.332,3.332,8.735,3.332,12.068,0l51.874-51.874C381.004,322.47,381.004,317.066,377.672,313.734z"/>
			<path d="M241.884,169.257c6.476-6.456,5.493-16.926-1.059-23.495l-12.733-12.733l40.65-40.65c3.332-3.332,3.332-8.735,0-12.068
				l-20.753-20.753c-3.332-3.332-8.735-3.332-12.068,0l-4.34,4.34L175.372,7.68c-3.332-3.333-8.736-3.333-12.068,0l-14.72,14.72
				l-4.341-4.341c-3.332-3.333-8.736-3.333-12.068,0l-25.088,25.09L83.503,19.564c-3.332-3.332-8.735-3.332-12.068,0l-9.527,9.527
				L35.311,2.501C31.978-0.83,26.576-0.83,23.244,2.502L2.499,23.247c-3.332,3.332-3.333,8.735-0.001,12.067l26.59,26.597
				l-9.528,9.528c-3.332,3.332-3.332,8.735,0,12.068l23.586,23.586l-25.089,25.091c-3.332,3.333-3.332,8.735,0,12.068l4.34,4.34
				L7.685,163.299c-3.333,3.332-3.334,8.736-0.002,12.069l56.21,56.218l-4.339,4.339c-3.332,3.333-3.332,8.735,0,12.068
				l20.753,20.753c3.332,3.332,8.735,3.332,12.068,0l40.654-40.654l12.726,12.726c6.549,6.566,17.026,7.543,23.503,1.067
				L241.884,169.257z M169.337,25.782l50.175,50.182l-8.685,8.685l-50.175-50.182L169.337,25.782z M20.601,29.281l8.678-8.678
				L49.84,41.159l-8.684,8.684L20.601,29.281z M55.214,95.024L37.663,77.473l9.518-9.518c0.003-0.003,0.006-0.005,0.009-0.008
				l20.753-20.753c0.003-0.003,0.005-0.006,0.008-0.009l9.518-9.518l17.55,17.55L64.333,85.905L55.214,95.024z M76.163,98.211
				l36.959-36.959c0.009-0.009,0.017-0.019,0.026-0.029l25.06-25.062l60.483,60.49L96.646,198.697l-56.141-56.141
				c-0.02-0.02-0.042-0.036-0.062-0.056l-4.283-4.283L76.163,98.211z M34.466,160.659l50.175,50.175l-8.682,8.682l-50.174-50.181
				L34.466,160.659z M86.341,250.644l-8.685-8.685L241.955,77.66l8.685,8.685l-39.757,39.757c-0.336,0.249-0.663,0.516-0.967,0.82
				l-82.995,82.995c-0.305,0.305-0.571,0.631-0.82,0.967L86.341,250.644z M157.977,229.029c0.019-0.078-0.028-0.153-0.147-0.272
				l-12.733-12.733l70.927-70.927l12.726,12.726c0.125,0.126,0.202,0.174,0.286,0.148L157.977,229.029z"/>
		</g>
	</g>
</g>
<g>
</g>
<g>
</g>
<g>
</g>
<g>
</g>
<g>
</g>
<g>
</g>
<g>
</g>
<g>
</g>
<g>
</g>
<g>
</g>
<g>
</g>
<g>
</g>
<g>
</g>
<g>
</g>
<g>
</g>
</svg>
