<?xml version="1.0" encoding="utf-8"?>
<!-- Generator: Adobe Illustrator 25.0.0, SVG Export Plug-In . SVG Version: 6.00 Build 0)  -->
<svg version="1.1" id="Vrstva_1" xmlns="http://www.w3.org/2000/svg" xmlns:xlink="http://www.w3.org/1999/xlink" x="0px" y="0px"
	 viewBox="0 0 723.2 163.9" style="enable-background:new 0 0 723.2 163.9;" xml:space="preserve">
<style type="text/css">
	.st0{fill:#FF9A00;}
	.st1{enable-background:new    ;}
</style>
<g id="Vrstva_2_1_">
	<g id="Vrstva_1-2">
		<path class="st0" d="M159.4,109.4c0.5-8.3-2.8-14.8-10-18.9c-6.9-4-15.5-3.3-21.7,1.8c-2.3,2-4.1,4.6-6.2,6.8
			c-0.3,0.2-0.8,0.1-1.3,0c-5.6-1.4-24-6.1-29.9-7.7c0.3-2.7,0-5.5-0.8-8.1C86.6,73.7,77,67.5,67,68.9c-1-3.6-5.5-19.5-6.3-22.4
			c-0.9-3.1-1.8-6.2-2.8-9.4l1.1-0.7c7.2-4.1,11-12.2,9.5-20.4C67.2,8.3,61.3,2.1,53.6,0.5c-2.4-0.5-5-0.3-7.5-0.5
			c-1.6,0.5-3.1,0.9-4.7,1.4c-0.2,0.1-0.4,0.3-0.6,0.4c-7.4,3.8-11.2,10-11.1,18.2c0.1,7.9,5.1,15,12.6,17.6c2.9,1,6,1.2,9,1.8
			c0.3,0.1,0.5,0.7,0.7,1.2c1.7,5.6,7.2,24.1,8.8,29.7c0.1,0.1,0.1,0.3,0.1,0.4c-9.2,4.4-13.8,14.8-10.8,24.5
			c0.7,2.2,1.7,4.3,3.1,6.1c-3,3.2-10.4,11.8-12.5,14.1c-2.4,2.7-4.8,5.3-7.3,8c-0.5-0.3-0.9-0.4-1.3-0.7
			c-8.1-4.4-17.4-3.4-24.7,2.6c-6.6,5.7-9.1,14.8-6.3,23c0.9,2.6,2.6,4.9,3.9,7.4c1.3,1.2,2.7,2.4,4,3.6c0.3,0.1,0.5,0.2,0.8,0.3
			c7.8,4.8,15.8,4.9,23.5,0.1c7.5-4.6,11.3-13.4,9.4-22c-0.7-3.3-2.3-6.4-3.5-9.5c-0.1-0.4,0.3-0.8,0.8-1.3
			c4.3-4.7,14-15.5,18.3-20.2c0.1-0.1,0.1-0.2,0.2-0.3c9.5,6.2,22.2,3.6,28.4-5.9c0.6-1,1.2-2,1.7-3.1c4.5,1.2,19.2,5.2,22,6
			c3.2,0.8,6.3,1.6,9.5,2.5c0,0.4,0,0.9,0,1.3c-0.2,8.3,4.8,15.8,12.6,18.7c7.4,2.9,15.7,1,21.1-4.8c1.7-1.8,2.9-4.2,4.3-6.3
			c0.4-1.6,0.8-3.2,1.2-4.8C159.4,110,159.4,109.7,159.4,109.4z"/>
		<g class="st1">
			<path d="M197.8,82.3c0-26.8,21.7-48.5,48.4-48.5c26.8,0,48.5,21.7,48.5,48.5c0,26.7-21.7,48.2-48.5,48.2
				C219.5,130.6,197.8,109,197.8,82.3z M215.2,82.3c0,17.2,13.9,31.1,30.9,31.1c17,0,30.9-13.9,30.9-31.1
				c0-17.3-13.9-31.2-30.9-31.2C229.1,51.1,215.2,65.1,215.2,82.3z"/>
		</g>
		<g class="st1">
			<path d="M307.5,129.3V69.7h16.4v4.8c4.7-4.7,11.7-6.2,16.4-6.2h3.9l-3.9,16.3h-2.5c-7.7,0-13.9,6-13.9,13.1v31.6H307.5z"/>
		</g>
		<g class="st1">
			<path d="M357.5,121.6l-0.1-0.1c-5.7-5.8-9-13.7-9-22s3.2-16.2,9-22.1c5.9-5.7,13.6-9,22.1-9c8.6,0,16.4,3.1,22,9
				c1.3,1.3,2.3,2.5,3.2,3.6l1.6,2.3l-12.7,9.5l-1.8-2.5c-3.1-4.2-7.7-6.8-12.2-6.8c-8.2,0-15.2,7.3-15.2,15.9
				c0,8.6,7,15.9,15.2,15.9c4.6,0,9.1-2.6,12.2-7l1.7-2.3l13.3,9.5l-2,2.5c-0.3,0.4-0.6,0.8-1,1.2c-0.6,0.8-1.4,1.7-2.2,2.5
				c-5.7,5.7-13.5,9-22,9C371.2,130.6,363.4,127.3,357.5,121.6z"/>
			<path d="M458.3,129.3V97.4c0-7-5.6-12.5-12.6-12.5c-6.8,0-12.6,5.6-12.6,12.5v31.9h-16.3V33.9h16.3V74c4-4,8.3-5.5,12.6-5.5
				c7.8,0,15.1,3,20.5,8.3c5.5,5.6,8.5,12.9,8.5,20.5v31.9H458.3z"/>
		</g>
		<g class="st1">
			<path d="M513.9,130.7c-3.8,0-7.7-0.9-11.3-2.6c-3.4-1.4-6.5-3.8-9.4-6.8c-4.5-4.9-7.3-11.4-7.9-18.2c-0.1-1.2-0.3-2.3-0.3-3.6
				c0-2.6,0.4-5.3,1-8.1c1.2-5.2,3.6-10,7.2-13.7c2.6-2.9,5.6-5.1,9.4-6.9c3.5-1.7,7.4-2.5,11.4-2.5c4.2,0,7.9,0.8,11.4,2.5
				c3.9,1.8,7,4.2,9.4,6.9c3.4,3.6,6,8.3,7.3,13.7c0.7,2.5,0.9,5.1,0.9,8.1c0,1,0,2.1,0,3h-43.7l0.1,0.9c1.7,8.1,7.8,13.9,14.6,13.9
				h0.1c3.8-0.3,7.9-2.6,10.4-4.7l1.4-1.2l10.8,9.4l-2,1.7c-1.4,1.3-3.2,2.9-5.2,3.9h-0.1c-4.7,2.7-9.8,4.2-15.5,4.3H513.9z
				 M501.2,90.9l-0.5,1h26.9l-0.5-1c-3-5.6-7.9-9-13-9S503.9,85.5,501.2,90.9z"/>
		</g>
		<g class="st1">
			<path d="M568.8,129.2c-6.5-1.3-12.6-4.2-17.4-8.5l-1.9-1.6l9.8-10.8l1.8,1.7c5.7,4.8,10.4,5.7,13.4,5.7c2.2,0,3.8-0.3,5.3-1
				c1.9-0.8,2.9-2.1,2.9-3.9c0-1.6-0.9-3.5-8.6-4.8c-7-1.4-11.4-2.9-13.5-4c-2.7-1.6-4.9-3.6-6.5-6.2c-1.6-2.6-2.3-5.5-2.3-8.7
				c0-3.4,1-6.6,3.1-9.6c1.7-2.5,4.2-4.4,7.8-6.2c3-1.4,6.4-2.1,10.4-2.1c1.4,0,2.9,0.1,4.2,0.3c5.7,0.9,11.4,3.4,16.1,7l2,1.6
				l-9.2,10.7l-1.8-1.4c-4.6-3.6-8.5-4.3-10.8-4.3c-1.7,0-3.2,0.3-4.7,0.9c-1.7,0.9-2.6,2.3-2.6,3.2c0,1.8,1.3,3.1,8.1,4.7
				c8.8,2.1,11.7,3.1,13.5,3.9c3.6,2.1,5.2,3.8,6.5,5.5c2,2.7,2.9,6.1,2.9,9.8c0,3.8-1,7.2-3,9.9c-2,2.7-4.6,5.1-8.3,6.9
				c-3,1.4-6.9,2.2-10.8,2.2C573.1,129.8,571.1,129.5,568.8,129.2z"/>
			<path d="M633.8,129.3c-5.7,0-11.1-2.2-15-6.1c-4-4-6.1-9.2-6.1-15V83.5h-8.3V70.1h8.3V46.7h15.5v23.4h17.3v13.4h-17.3V108
				c0,3.2,2.9,6.2,5.7,6.2h11.3l4.2,15.1H633.8z"/>
			<path d="M664.8,163.9l14.2-34.5l-23.8-59.7h17.4l14.8,37.1l15.1-37.1h17.3l-38,94.1H664.8z"/>
		</g>
	</g>
</g>
</svg>
