<svg xmlns="http://www.w3.org/2000/svg" xmlns:xlink="http://www.w3.org/1999/xlink" viewBox="0 0 1345.51 1345.51"><defs><style>.cls-1{fill:#2a3f5b;}.cls-2{fill:url(#Nepojmenovaný_přechod_100);}</style><linearGradient id="Nepojmenovaný_přechod_100" x1="1890.43" y1="-1462.75" x2="2691.89" y2="-1462.75" gradientTransform="translate(171.1 -1938.18) rotate(111.48)" gradientUnits="userSpaceOnUse"><stop offset="0.1" stop-color="#f2b86a"/><stop offset="0.85" stop-color="#e16453"/></linearGradient></defs><g id="Vrstva_2" data-name="Vrstva 2"><g id="Vrstva_1-2" data-name="Vrstva 1"><path class="cls-1" d="M1126.38,1345.51H219.13A219,219,0,0,1,0,1126.38V219.13A219,219,0,0,1,219.13,0h907.25a219,219,0,0,1,219.13,219.13v907.25A219,219,0,0,1,1126.38,1345.51Z"/><path class="cls-2" d="M416.75,1050.89c38.07,17.76,74.24,14,107-11.83a95.11,95.11,0,0,0,31.55-104.7c-4.83-14.52-13.66-27.71-20.67-41.5-.61-1.73,1-4,2.67-6.25,17-23.42,72.94-100.93,90.84-125.72a101.38,101.38,0,0,0,39.32,11.34c51.67,4,97.48-30.37,109-79,18.89,1.82,101.23,10.27,116.34,11.62l49.08,4.39c.48,2.56.91,4.51,1.22,6.48,6.43,41.51,35.65,72.42,77.66,82.1,37,8.53,78.37-7.75,100.42-40.94,6.92-10.41,10.74-22.89,16-34.43l2.19-24.48a21.82,21.82,0,0,1-1-3.58c-4.31-41.63-26-70.62-64.88-85.37a94.72,94.72,0,0,0-105.61,26.64C958,647.2,951.24,661.5,943,674.55c-1.16,1.41-3.93,1.16-6.7.92-29.07-2.57-126-10.87-155.05-13.37-.76-.07-1.51-.1-2.24-.12-3.54-50.15-43.41-91.87-94.64-95.83a104.66,104.66,0,0,0-34.39,3c-9.84-19.84-36-70.21-42.94-84.52-7.9-16.22-15.81-32.43-23.83-48.89,2.14-1.91,3.74-3.43,5.43-4.84,35.57-29.75,48.12-75,33.32-120.21-13-39.82-52-69.66-96-71.58-13.79-.6-27.76,2.9-41.65,4.53L460,255.54a23.45,23.45,0,0,1-2.83,3c-36.89,27.8-51.92,64.85-43.7,110a104.57,104.57,0,0,0,85.39,84.63c16.59,2.81,34,1,51,1.34,2,.3,3.34,3.06,4.69,5.82,14.15,28.93,46.7,94.12,60.91,123,.27.54.54,1.05.82,1.54a103.16,103.16,0,0,0-13.5,157.26C588.85,760.87,543,822.22,534.43,834l-29.1,40c-2.45-.9-4.35-1.54-6.2-2.29-39.08-15.88-80.77-6.66-110.78,24.52-26.42,27.45-33.75,71.5-16.55,107.61,5.4,11.33,14.18,21.06,21.41,31.53l20,14.51A22.4,22.4,0,0,1,416.75,1050.89Z"/></g></g></svg>