<?xml version="1.0" encoding="iso-8859-1"?>
<!-- Generator: Adobe Illustrator 18.1.1, SVG Export Plug-In . SVG Version: 6.00 Build 0)  -->
<svg version="1.1" id="Capa_1" xmlns="http://www.w3.org/2000/svg" xmlns:xlink="http://www.w3.org/1999/xlink" x="0px" y="0px"
	 viewBox="0 0 37.011 37.011" style="enable-background:new 0 0 37.011 37.011;" xml:space="preserve">
<g>
	<path style="fill:#010002;" d="M33.079,22.426c-0.006-1.05-0.133-2.086-0.356-3.096c0.007-0.053,0.003-0.11-0.018-0.173
		c-0.007-0.022-0.017-0.045-0.023-0.068c-0.002-0.004-0.003-0.007-0.005-0.011c-0.013-0.04-0.028-0.079-0.042-0.119
		c-0.634-2.554-1.939-4.907-3.801-6.791c0.73-0.794,1.46-1.587,2.189-2.381c0.117-0.128,0.234-0.256,0.354-0.384
		c0.06-0.065-0.068,0.083-0.046,0.086c0.119,0.015,0.249,0.006,0.367-0.015c0.229-0.042,0.458-0.117,0.638-0.272
		c0.819-0.703,0.518-1.846-0.131-2.548c-0.535-0.5-1.385-0.874-2.098-0.5c-0.74,0.389-0.855,1.17-0.625,1.889
		c-0.804,0.875-1.607,1.749-2.411,2.624c-0.922-0.672-1.911-1.225-2.95-1.656c-0.309-0.132-0.62-0.259-0.938-0.368
		c-0.105-0.036-0.213-0.064-0.319-0.098c-0.423-0.135-0.852-0.249-1.286-0.344c-0.058-0.012-0.114-0.025-0.172-0.037
		c-0.572-0.118-1.151-0.211-1.739-0.26c0-1.562,0-3.124,0-4.686c0-0.164-0.136-0.3-0.3-0.3c-0.484,0-0.968,0-1.452,0
		c-0.164,0-0.3,0.136-0.3,0.3c0,1.563,0,3.128,0,4.693c-0.924,0.053-1.847,0.171-2.754,0.399c-4.251,1.068-7.85,4.151-9.655,8.128
		c-1.868,4.118-1.66,8.958,0.467,12.934c2.072,3.874,5.935,6.632,10.245,7.412c4.434,0.802,9.026-0.551,12.372-3.547
		c3.05-2.733,4.771-6.725,4.79-10.805C33.08,22.43,33.079,22.429,33.079,22.426z M18.898,8.675c0.025,0,0.05-0.002,0.075-0.001
		c0.134,0.005,0.269,0.01,0.402,0.019c0.373,0.022,0.744,0.067,1.116,0.12c0.336,0.05,0.669,0.114,0.999,0.188
		c0.192,0.042,0.385,0.085,0.574,0.136c0.3,0.082,0.597,0.172,0.89,0.274c0.077,0.026,0.151,0.057,0.228,0.084
		c1.383,0.511,2.681,1.249,3.84,2.22c2.243,1.881,3.803,4.454,4.752,7.202c-4.292,0.415-8.584,0.831-12.876,1.247
		C18.898,16.334,18.898,12.505,18.898,8.675z M30.081,7.965c-0.204-0.477-0.184-1.091,0.37-1.307
		c0.473-0.183,0.994,0.106,1.329,0.418c0,0,0,0.001,0.001,0.002c0.341,0.37,0.549,0.83,0.411,1.334
		c-0.088,0.321-0.412,0.463-0.714,0.483c-0.17,0.012-0.368-0.085-0.506,0.064c-0.233,0.254-0.467,0.508-0.7,0.762
		c-0.603,0.656-1.205,1.311-1.808,1.966c-0.274-0.252-0.548-0.504-0.822-0.755c0.797-0.868,1.596-1.735,2.392-2.603
		C30.134,8.22,30.136,8.096,30.081,7.965z M18.497,7.851c-0.042,0-0.082,0.012-0.121,0.025c-0.054,0-0.107-0.007-0.161-0.006
		c0-1.45,0-2.901,0-4.352c0.284,0,0.568,0,0.852,0c0,1.453,0,2.905,0,4.359C18.877,7.869,18.688,7.852,18.497,7.851z M26.265,33.819
		c-3.787,2.604-8.713,3.076-12.966,1.383c-4.155-1.655-7.247-5.406-8.247-9.737c-1.031-4.464,0.339-9.232,3.474-12.544
		c2.499-2.639,5.988-4.116,9.571-4.233c0,3.971,0,7.941,0,11.913c0,0.203,0.183,0.422,0.4,0.4c4.499-0.436,9-0.871,13.499-1.307
		c0.179,0.901,0.279,1.82,0.283,2.738C32.258,26.972,30.009,31.246,26.265,33.819z"/>
	<path style="fill:#010002;" d="M14.656,2.494c2.447,0,4.895,0,7.342,0c0.054,0,0.082-0.032,0.12-0.052
		c0.032-0.013,0.065-0.016,0.091-0.039c0.019-0.021,0.02-0.048,0.031-0.073c0.024-0.042,0.059-0.075,0.059-0.136
		c0-0.631,0-1.263,0-1.894c0-0.164-0.137-0.3-0.301-0.3c-2.447,0-4.895,0-7.342,0c-0.164,0-0.3,0.136-0.3,0.3
		c0,0.631,0,1.263,0,1.894C14.356,2.358,14.492,2.494,14.656,2.494z M21.698,1.894c-2.247,0-4.495,0-6.742,0
		c0-0.431,0-0.863,0-1.294c2.248,0,4.495,0,6.742,0C21.698,1.031,21.698,1.463,21.698,1.894z"/>
</g>
<g>
</g>
<g>
</g>
<g>
</g>
<g>
</g>
<g>
</g>
<g>
</g>
<g>
</g>
<g>
</g>
<g>
</g>
<g>
</g>
<g>
</g>
<g>
</g>
<g>
</g>
<g>
</g>
<g>
</g>
</svg>
