<?xml version="1.0" standalone="no"?>
<!DOCTYPE svg PUBLIC "-//W3C//DTD SVG 20010904//EN"
 "http://www.w3.org/TR/2001/REC-SVG-20010904/DTD/svg10.dtd">
<svg version="1.0" xmlns="http://www.w3.org/2000/svg"
 width="700.000000pt" height="700.000000pt" viewBox="0 0 700.000000 700.000000"
 preserveAspectRatio="xMidYMid meet">
<metadata>
Created by potrace 1.14, written by Peter Selinger 2001-2017
</metadata>
<g transform="translate(0.000000,700.000000) scale(0.100000,-0.100000)"
fill="#000000" stroke="none">
<path d="M952 6985 c-447 -81 -801 -404 -912 -834 -12 -43 -24 -89 -28 -102
-3 -13 -7 -1144 -8 -2514 -2 -2746 -6 -2587 62 -2777 120 -333 384 -590 719
-701 176 -58 22 -55 2740 -53 1375 1 2514 5 2530 9 17 5 50 13 73 18 257 57
526 242 675 466 51 77 117 204 117 226 0 7 4 17 8 23 13 13 39 107 56 199 13
70 15 393 13 2580 -1 1375 -6 2514 -10 2530 -5 17 -13 48 -18 70 -5 22 -11 47
-13 55 -9 34 -55 149 -81 200 -147 290 -430 513 -744 586 -36 9 -75 19 -86 22
-11 4 -1145 7 -2520 8 -2032 2 -2514 0 -2573 -11z"/>
</g>
</svg>
