<?xml version="1.0" standalone="no"?>
<!DOCTYPE svg PUBLIC "-//W3C//DTD SVG 20010904//EN"
 "http://www.w3.org/TR/2001/REC-SVG-20010904/DTD/svg10.dtd">
<svg version="1.0" xmlns="http://www.w3.org/2000/svg"
 width="1346.000000pt" height="1346.000000pt" viewBox="0 0 1346.000000 1346.000000"
 preserveAspectRatio="xMidYMid meet">
<metadata>
Created by potrace 1.14, written by Peter Selinger 2001-2017
</metadata>
<g transform="translate(0.000000,1346.000000) scale(0.100000,-0.100000)"
fill="#000000" stroke="none">
<path d="M1935 13435 c-133 -19 -163 -25 -235 -41 -411 -97 -757 -289 -1050
-583 -129 -129 -150 -154 -232 -267 -224 -310 -353 -642 -403 -1029 -12 -93
-13 -835 -11 -4830 1 -2596 5 -4738 9 -4760 5 -22 15 -76 23 -120 8 -44 18
-93 21 -110 21 -119 125 -397 200 -534 61 -111 176 -288 202 -311 3 -3 22 -25
41 -50 54 -71 187 -205 281 -285 278 -234 664 -418 994 -474 33 -6 74 -13 90
-16 17 -2 57 -8 90 -12 76 -10 9432 -10 9540 -1 44 4 94 10 110 13 17 4 62 13
100 20 301 56 619 199 883 397 190 142 412 385 541 591 47 76 142 256 158 302
6 17 25 68 43 115 58 158 103 354 118 515 4 44 7 2202 7 4795 0 4538 -1 4719
-18 4825 -38 223 -102 431 -193 619 -43 91 -94 187 -104 196 -3 3 -26 36 -50
75 -251 391 -688 722 -1145 868 -121 38 -150 45 -295 72 -41 7 -93 17 -115 21
-22 5 -2171 9 -4775 10 -3817 1 -4752 -1 -4825 -11z"/>
</g>
</svg>
