<svg width="160" height="160" viewBox="0 0 160 160" fill="none" xmlns="http://www.w3.org/2000/svg">
<g clip-path="url(#clip0_723_62176)">
<rect width="160" height="160" rx="31.7881" fill="#3B82F6"/>
<path d="M159.881 280.8C140.186 280.8 123.07 277.125 108.603 269.849C94.1365 262.574 82.1764 252.974 72.723 241.198C63.2695 229.423 56.1794 216.672 51.5243 203.022C46.8692 189.371 44.5059 176.171 44.5059 163.42V156.52C44.5059 142.569 46.8692 128.619 51.6676 114.743C56.4659 100.868 63.6992 88.2672 73.3675 77.0167C83.0358 65.7663 95.0675 56.6909 109.391 49.9406C123.714 43.1904 140.544 39.7402 159.881 39.7402C179.217 39.7402 195.761 43.1154 210.084 49.9406C224.408 56.7659 236.439 65.7663 246.108 77.0167C255.776 88.2672 263.009 100.868 267.808 114.743C272.606 128.619 274.969 142.569 274.969 156.52V163.42C274.969 176.171 272.606 189.371 267.951 203.022C263.296 216.672 256.206 229.423 246.752 241.198C237.299 252.974 225.339 262.499 210.872 269.849C196.406 277.125 179.432 280.8 159.881 280.8ZM159.881 239.473C171.053 239.473 181.08 237.373 189.888 233.248C198.697 229.123 206.36 223.273 212.591 215.847C218.893 208.422 223.62 200.022 226.914 190.496C230.209 180.971 231.856 170.92 231.856 160.27C231.856 148.795 230.209 138.294 226.914 128.694C223.62 119.093 218.822 110.768 212.591 103.643C206.289 96.5175 198.697 91.0423 189.745 87.0671C180.793 83.092 170.838 81.1419 159.881 81.1419C148.923 81.1419 138.682 83.092 129.73 87.0671C120.778 91.0423 113.115 96.5925 106.884 103.643C100.582 110.768 95.8553 119.093 92.5609 128.694C89.2665 138.294 87.6193 148.87 87.6193 160.27C87.6193 170.92 89.2665 180.971 92.5609 190.496C95.8553 200.022 100.654 208.422 106.884 215.847C113.187 223.273 120.778 229.048 129.73 233.248C138.682 237.448 148.78 239.473 159.881 239.473Z" fill="black"/>
</g>
<defs>
<clipPath id="clip0_723_62176">
<rect width="160" height="160" rx="31.7881" fill="white"/>
</clipPath>
</defs>
</svg>
