<svg xmlns="http://www.w3.org/2000/svg" xmlns:xlink="http://www.w3.org/1999/xlink" viewBox="0 0 3323.91 693.27"><defs><style>.cls-1{fill:url(#Nepojmenovaný_přechod_39);}.cls-2{fill:#1d1d1b;}</style><linearGradient id="Nepojmenovaný_přechod_39" x1="7115.37" y1="-905.28" x2="6707.79" y2="-440.38" gradientUnits="userSpaceOnUse"><stop offset="0.14" stop-color="#f2b86a"/><stop offset="0.83" stop-color="#e16453"/></linearGradient></defs><g id="Vrstva_2" data-name="Vrstva 2"><g id="Vrstva_1-2" data-name="Vrstva 1"><path class="cls-1" d="M7292.74-642.28c2-32.3-10.9-57.2-38.7-73.4a73.46,73.46,0,0,0-84.1,6.9c-9,7.6-16,17.7-24,26.5-1.1.9-3.2.4-5.2-.2-21.6-5.6-93-23.8-115.9-29.7a76.69,76.69,0,0,0-3-31.4,80,80,0,0,0-87.5-56c-4-14-21.2-75.6-24.5-86.8-3.5-12.1-7.1-24.2-10.7-36.5,1.7-1.1,3-1.9,4.3-2.7,28-16.4,41.9-46,37-78.9-4.3-28.9-27.7-54.1-57.8-60.5-9.4-2-19.4-1.2-29.2-1.8-6.1,1.8-12.1,3.5-18.2,5.3-.8.5-1.5,1.3-2.3,1.7-28.7,14.9-43.3,38.6-43,70.7a73,73,0,0,0,49,68.3c11.1,3.9,23.3,4.7,34.9,6.9,1.3.5,1.9,2.5,2.5,4.6,6.4,21.6,27.8,93.5,34.2,115.1a9.83,9.83,0,0,1,.5,1.6c-35,16.7-53.7,57.1-42,95a80.5,80.5,0,0,0,11.9,23.8c-11.5,12.6-40.3,45.7-48.5,54.7-9.4,10.3-18.8,20.5-28.4,30.9-2-1-3.5-1.7-5-2.5-31.4-17.1-67.4-13.3-95.7,10-24.9,20.6-35.3,57-24.3,89.1,3.5,10.1,10,19.1,15,28.6,5.2,4.7,10.3,9.4,15.4,14.1a14.76,14.76,0,0,1,2.9,1.2c30.4,18.6,61.2,19,91.2.3a80.52,80.52,0,0,0,36.6-85.2c-2.7-12.7-8.9-24.7-13.4-36.9-.4-1.5,1.2-3.2,2.9-5,16.7-18.4,54.4-60.1,71.1-78.4a7,7,0,0,0,.8-1,79.06,79.06,0,0,0,66.9,9.6,79.68,79.68,0,0,0,49.7-44.4c17.4,4.7,74.4,20.3,85.2,23.1,12.3,3.2,24.5,6.3,36.9,9.6a45,45,0,0,1,.1,5.1c-.4,32.5,18,59.9,48.9,72.6,27.2,11.2,60.9,4,81.9-18.5,6.6-7.1,11.1-16.1,16.6-24.3,1.6-6.2,3.2-12.3,4.8-18.4A12.74,12.74,0,0,0,7292.74-642.28Z" transform="translate(-6674.67 1066.78)"/><g id="SvgjsG2702"><path class="cls-2" d="M7721.81-532.71A230.31,230.31,0,0,1,7491-763.52c0-127.88,102.94-234,230.82-234s234,102.94,234,234C7955.81-638.85,7852.88-532.71,7721.81-532.71Zm0-383.62c-81.2,0-149.62,65.53-149.62,149.61,0,81.2,65.54,149.61,149.62,149.61s149.61-65.53,149.61-149.61a149.39,149.39,0,0,0-149.61-149.61Zm374.34,377.54h-78V-825.86h78v21.74c21.74-21.74,56.27-31.33,78-31.33H8193l-18.86,78h-12.47c-37.4,0-65.54,28.13-65.54,62.34v156.32Zm268.22,6.08a148.65,148.65,0,0,1-106.14-43.8h0a148.6,148.6,0,0,1-43.79-106.13,148.63,148.63,0,0,1,43.79-106.14,148.64,148.64,0,0,1,106.14-43.79,148.6,148.6,0,0,1,106.13,43.79c6.4,6.4,12.47,12.47,15.67,18.86l6.39,12.47-62.34,46.68L8421-723.24c-15.66-18.86-37.4-31.33-59.14-31.33-40.6,0-71.61,34.2-71.61,74.8S8324.41-605,8361.81-605c21.74,0,43.8-12.47,59.14-34.21l9.27-12.46L8492.56-605l-9.27,12.47c0,3.19-3.2,3.19-6.39,6.39s-6.4,9.27-9.27,12.47c-25.26,25.25-62.66,40.92-103.26,40.92Zm455.55-6.08h-78v-152.8c0-34.21-28.13-59.15-59.14-59.15s-59.14,28.14-59.14,59.15v152.8h-78V-997.21h74.81V-803.8c18.86-18.86,40.59-24.94,59.14-24.94,37.4,0,71.61,15.67,99.74,40.6,24.93,28.13,40.6,62.34,40.6,99.74Zm190.21,6.08h0c-18.86,0-37.4-3.2-56.27-12.47-15.66-6.39-31.32-18.86-43.79-31.33-21.74-24.93-34.21-56.26-37.4-87.27v-18.86c0-12.47,3.19-24.94,6.39-37.41,6.39-24.93,18.86-46.67,34.2-65.53a230.36,230.36,0,0,1,43.8-34.21c15.67-9.27,34.21-12.46,56.27-12.46,18.86,0,37.4,3.19,56.26,12.46s34.21,18.86,43.8,34.21c15.66,18.86,28.13,40.6,34.2,65.53,3.2,12.47,3.2,24.94,3.2,37.41V-667H8941.72v3.2c9.27,37.4,37.4,65.53,68.73,65.53h0c18.86,0,37.4-12.46,49.87-21.73l6.39-6.4,53.07,46.68-9.27,9.27c-6.39,6.39-15.66,12.46-24.93,18.86h0c-25.58,9.59-50.52,18.86-75.45,18.86Zm0-234c-24.94,0-49.87,15.67-62.34,43.8l-3.2,6.39h127.88l-3.2-6.39c-12.15-28.13-37.08-43.8-59.14-43.8ZM9300.4-538.79c-9.27,0-18.86,0-28.13-3.19-31.33-6.4-59.14-18.86-84.08-40.6l-9.27-6.4L9225.59-642l9.28,9.27c28.13,21.74,49.87,28.13,65.53,28.13,9.27,0,18.86,0,24.94-6.39,9.27-3.2,12.46-9.27,12.46-18.86,0-6.4-3.19-15.67-40.6-21.74-34.2-6.4-56.26-12.47-65.53-18.86-12.47-6.4-24.94-18.87-31.33-31.33s-12.47-24.94-12.47-40.6,6.4-31.33,15.67-46.68c9.27-12.46,18.86-21.74,37.4-31.33,15.66-6.39,31.33-9.27,49.87-9.27h18.86c28.13,3.2,56.27,15.67,78,34.21l9.27,6.39L9353.15-736l-9.27-6.39c-21.74-18.86-40.6-21.74-53.07-21.74-9.27,0-15.66,0-21.74,3.2-9.27,3.19-12.47,12.46-12.47,15.66,0,9.27,6.4,15.66,37.41,21.74,43.79,9.27,56.26,15.66,65.53,18.86,18.86,9.27,24.94,18.86,31.33,24.93,9.27,12.47,12.47,28.14,12.47,46.68a76.52,76.52,0,0,1-15.67,46.67,110,110,0,0,1-40.6,34.21c-9.27,10.23-28.13,13.42-46.67,13.42Zm358.69,0h-74.81c-28.13,0-53.07-9.27-71.61-28.13s-28.13-43.79-28.13-71.61v-118.6h-40.6v-65.53h40.6V-935.19h71.61V-823h84.07v65.53h-84.07V-642c0,15.66,12.47,31.33,28.13,31.33h53.07Zm156,165.28h-81.2l68.73-165.28-115.4-287.07h84.07l71.61,177.74,71.61-177.74h84.08Z" transform="translate(-6674.67 1066.78)"/></g></g></g></svg>