<svg xmlns="http://www.w3.org/2000/svg" viewBox="0 0 188.97 188.96"><defs><style>.cls-1{fill:#03233a;}.cls-2{fill:#ff9a00;}</style></defs><g id="Vrstva_2" data-name="Vrstva 2"><g id="Izolovaný_režim" data-name="Izolovaný režim"><g id="Vrstva_2-2" data-name="Vrstva 2"><g id="Vrstva_2-3" data-name="Vrstva 2"><g id="Vrstva_1-2" data-name="Vrstva 1-2"><path class="cls-1" d="M158.2,189H30.77A30.75,30.75,0,0,1,0,158.21V30.77A30.75,30.75,0,0,1,30.74,0H158.2A30.75,30.75,0,0,1,189,30.74V158.2A30.75,30.75,0,0,1,158.2,189Z"/><path class="cls-1" d="M43.23,161.56c6.52,3,12.7,2.38,18.3-2a16.23,16.23,0,0,0,5.39-17.9c-.83-2.49-2.34-4.74-3.54-7.1-.09-.29.17-.68.47-1.05,2.9-4,12.47-17.26,15.53-21.5a17.51,17.51,0,0,0,6.71,1.92,17.74,17.74,0,0,0,18.66-13.51c3.23.31,17.3,1.76,19.88,2,2.78.25,5.58.49,8.4.76.09.45.16.77.21,1.11a16.8,16.8,0,0,0,13.29,14,16.61,16.61,0,0,0,17.18-7,45,45,0,0,0,2.73-5.88c.12-1.41.26-2.79.38-4.19,0-.21-.14-.41-.17-.62-.73-7.12-4.45-12.08-11.09-14.6a16.18,16.18,0,0,0-18.06,4.55,56.16,56.16,0,0,0-4.26,6.65c-.21.24-.67.21-1.15.16-5-.45-21.56-1.87-26.52-2.31h-.38A17.68,17.68,0,0,0,89,78.65a18.25,18.25,0,0,0-5.89.52c-1.67-3.38-6.15-12-7.33-14.45l-4.07-8.36.92-.83A18.51,18.51,0,0,0,78.34,35,18.28,18.28,0,0,0,61.92,22.72a46.83,46.83,0,0,0-7.13.78c-1.39.68-2.8,1.35-4.17,2a3.86,3.86,0,0,1-.48.51c-6.31,4.76-8.88,11.09-7.47,18.82a17.83,17.83,0,0,0,14.6,14.46c2.84.48,5.82.17,8.73.23.33.06.56.53.8,1,2.41,4.94,8,16.09,10.4,21a2,2,0,0,1,.14.25,17.65,17.65,0,0,0-4.25,24.59,15.75,15.75,0,0,0,1.94,2.3c-2.38,3.22-10.23,13.7-11.69,15.72l-5,6.84c-.42-.15-.76-.25-1-.39a16.82,16.82,0,0,0-19,4.18,16.62,16.62,0,0,0-2.82,18.4,40.92,40.92,0,0,0,3.66,5.39c1.15.82,2.28,1.66,3.43,2.49C42.82,161.43,43.05,161.47,43.23,161.56Z"/></g></g></g><path class="cls-2" d="M154.65,109.13c.36-5.75-1.94-10.19-6.9-13.08a13.1,13.1,0,0,0-15,1.23,49.24,49.24,0,0,0-4.28,4.72c-.2.16-.57.08-.93,0-3.85-1-16.57-4.24-20.65-5.29a13.6,13.6,0,0,0-.54-5.6,14.24,14.24,0,0,0-15.59-10c-.71-2.49-3.78-13.47-4.36-15.47s-1.27-4.31-1.91-6.5c.3-.2.53-.34.77-.48a13.49,13.49,0,0,0,6.59-14.06,13.31,13.31,0,0,0-10.3-10.78,34.42,34.42,0,0,0-5.2-.32l-3.25.94a3.91,3.91,0,0,1-.41.3c-5.11,2.66-7.71,6.88-7.66,12.6A13,13,0,0,0,73.78,59.5,41.73,41.73,0,0,0,80,60.73c.23.09.34.45.45.82,1.14,3.85,5,16.67,6.09,20.51a1.61,1.61,0,0,1,.09.29,14.17,14.17,0,0,0-5.36,21.17c-2,2.24-7.18,8.14-8.65,9.75-1.67,1.83-3.35,3.65-5.06,5.5l-.89-.44a14.92,14.92,0,0,0-17.05,1.78A14.71,14.71,0,0,0,45.29,136,38,38,0,0,0,48,141.08c.93.84,1.84,1.68,2.75,2.52a2.49,2.49,0,0,1,.51.21c5.42,3.31,10.91,3.39,16.25.05A14.34,14.34,0,0,0,74,128.68a50.64,50.64,0,0,0-2.39-6.57c-.07-.27.21-.57.51-.9,3-3.27,9.7-10.71,12.67-14a.8.8,0,0,0,.15-.17,14.16,14.16,0,0,0,20.78-6.21c3.1.84,13.25,3.62,15.18,4.12,2.19.57,4.36,1.12,6.57,1.71a6.91,6.91,0,0,1,0,.91,13.54,13.54,0,0,0,8.72,12.94,13.38,13.38,0,0,0,14.59-3.3,33,33,0,0,0,3-4.33c.28-1.1.57-2.19.85-3.28A2.07,2.07,0,0,0,154.65,109.13Z"/></g></g></svg>