<svg xmlns="http://www.w3.org/2000/svg" xmlns:xlink="http://www.w3.org/1999/xlink" viewBox="0 0 1345.5 1345.4"><defs><style>.cls-1{fill:#2a3f5b;}.cls-2{fill:url(#Nepojmenovaný_přechod_35);}</style><linearGradient id="Nepojmenovaný_přechod_35" x1="3666.86" y1="3198.76" x2="4642.65" y2="3198.76" gradientTransform="translate(5142.51 -1935.77) rotate(111.48)" gradientUnits="userSpaceOnUse"><stop offset="0.1" stop-color="#f2b86a"/><stop offset="0.85" stop-color="#e16453"/></linearGradient></defs><g id="Vrstva_2" data-name="Vrstva 2"><g id="Vrstva_1-2" data-name="Vrstva 1"><path class="cls-1" d="M1126.4,1345.4H219.1A219,219,0,0,1,0,1126.3V219.1A219,219,0,0,1,219.1,0h907.3a219,219,0,0,1,219.1,219.1v907.3C1345.5,1247.4,1247.5,1345.4,1126.4,1345.4Z"/><path class="cls-2" d="M307.83,1150.26c46.39,21.68,90.35,17,130.29-14.36a115.67,115.67,0,0,0,38.36-127.5c-5.85-17.65-16.68-33.73-25.21-50.53-.73-2.07,1.22-4.87,3.29-7.55,20.7-28.5,88.77-122.87,110.57-153.07A124.41,124.41,0,0,0,613,811c63,4.87,118.73-37,132.85-96.2,23,2.2,123.24,12.55,141.62,14.13,19.85,1.83,39.7,3.53,59.79,5.36.61,3.16,1.1,5.48,1.46,7.91,7.8,50.54,43.47,88.16,94.62,100,45,10.35,95.47-9.5,122.26-49.81,8.4-12.66,13-27.88,19.48-41.89.85-10,1.83-19.85,2.68-29.83-.37-1.46-1-2.92-1.22-4.38-5.24-50.66-31.66-86-79-104A115.44,115.44,0,0,0,978.9,644.67c-12,14.13-20.33,31.54-30.32,47.37-1.46,1.71-4.75,1.46-8.16,1.1C905,690,787,679.87,751.68,676.82a21,21,0,0,0-2.68-.12C744.74,615.57,696.15,564.79,633.8,560a129.2,129.2,0,0,0-41.88,3.66c-11.94-24.11-43.84-85.49-52.24-102.9-9.62-19.73-19.24-39.45-29-59.54,2.55-2.32,4.5-4.14,6.57-5.85,43.35-36.16,58.57-91.33,40.55-146.37-15.83-48.46-63.32-84.87-116.9-87.18-16.8-.74-33.85,3.53-50.78,5.48-9.86,4.87-19.85,9.61-29.71,14.49a34,34,0,0,1-3.41,3.65c-44.93,33.85-63.2,79-53.21,134a127.11,127.11,0,0,0,104,103c20.21,3.41,41.4,1.22,62.1,1.59,2.44.36,4,3.77,5.73,7.06,17.17,35.19,56.86,114.59,74.15,149.78.37.61.61,1.21,1,1.82a125.68,125.68,0,0,0-16.44,191.55c-16.93,22.89-72.82,97.54-83.17,111.9-11.81,16.2-23.5,32.27-35.44,48.71-3-1.09-5.35-1.82-7.55-2.8-47.61-19.36-98.39-8.16-134.92,29.84-32.14,33.36-41.15,87.06-20.09,131,6.58,13.76,17.29,25.69,26.06,38.36,8.16,5.84,16.19,11.81,24.35,17.65C304.9,1149.41,306.49,1149.66,307.83,1150.26Z"/></g></g></svg>