<svg xmlns="http://www.w3.org/2000/svg" viewBox="0 0 264.2 46.07"><defs><style>.cls-1{isolation:isolate;}.cls-2{fill:#1d2849;}</style></defs><g id="Vrstva_2" data-name="Vrstva 2"><g id="Vrstva_1-2" data-name="Vrstva 1"><g id="Page-1"><g id="logo1"><g class="cls-1"><path class="cls-2" d="M20,46a20.13,20.13,0,0,1-7.2-1.2,18.66,18.66,0,0,1-5.6-3.4,18.47,18.47,0,0,1-4-5.1,25.75,25.75,0,0,1-2.4-6.2,30,30,0,0,1-.8-6.7,30,30,0,0,1,.8-6.7,27,27,0,0,1,2.5-6.1,22,22,0,0,1,4-5.1,16.4,16.4,0,0,1,5.5-3.4,19.39,19.39,0,0,1,7-1.3,16,16,0,0,1,6.7,1.3,16.73,16.73,0,0,1,5.2,3.4,17.61,17.61,0,0,1,3.7,5.1,26.14,26.14,0,0,1,2.2,6.1,29.89,29.89,0,0,1,.7,6.7,29.89,29.89,0,0,1-.7,6.7,24.6,24.6,0,0,1-2.2,6.1,20.81,20.81,0,0,1-3.7,5.1,20.09,20.09,0,0,1-5.1,3.5A19.86,19.86,0,0,1,20,46ZM18.7,9.47A9,9,0,0,0,14,11a13.34,13.34,0,0,0-3.4,3.3,13.16,13.16,0,0,0-2,4.5,17.79,17.79,0,0,0-.6,5.1,20.8,20.8,0,0,0,.7,5,16.25,16.25,0,0,0,2.1,4.4,10.46,10.46,0,0,0,3.5,3.1,10,10,0,0,0,5,1.2,7.46,7.46,0,0,0,3.7-.8,8.93,8.93,0,0,0,2.9-2.2,14.77,14.77,0,0,0,2.1-3.2,16.26,16.26,0,0,0,1.3-3.9,19.92,19.92,0,0,0,.4-4.2,19.92,19.92,0,0,0-.4-4.2,15.49,15.49,0,0,0-1.3-3.8,11.59,11.59,0,0,0-2.2-3.1,9.19,9.19,0,0,0-3.1-2A7.37,7.37,0,0,0,18.7,9.47Z"/><path class="cls-2" d="M42.1.87a73.73,73.73,0,0,1,7.8-.8,53.7,53.7,0,0,1,7,.1,26.56,26.56,0,0,1,6,1.2,14.08,14.08,0,0,1,4.7,2.5,13,13,0,0,1,3.1,3.9,13.59,13.59,0,0,1,1.3,5.6,13.29,13.29,0,0,1-.4,4.1,9.88,9.88,0,0,1-1.5,3.3,11,11,0,0,1-2.3,2.5,14.15,14.15,0,0,1-2.9,1.8,17.55,17.55,0,0,1-3.2,1.2,20.57,20.57,0,0,1-3.2.7L73,39.67l-5.9,6.4L50.5,31.27l.2,13.8H42V.87Zm8.8,18.3c.3,0,.7.1,1.2.1h1.8a14.92,14.92,0,0,0,2.1-.2,17,17,0,0,0,2.2-.4,17.23,17.23,0,0,0,2.1-.7,7.12,7.12,0,0,0,1.7-1.1,3.27,3.27,0,0,0,1.1-1.5,3.61,3.61,0,0,0,.3-2.1,4.76,4.76,0,0,0-.7-2.1,5.72,5.72,0,0,0-1.6-1.5,12.24,12.24,0,0,0-2.3-1,20,20,0,0,0-2.6-.5,12.89,12.89,0,0,0-2.8-.1,21.12,21.12,0,0,0-2.6.2Z"/><path class="cls-2" d="M106.2,38.77a11.58,11.58,0,0,1-2.4,2.6,25.71,25.71,0,0,1-3.2,2.2,23.88,23.88,0,0,1-3.7,1.5,13.36,13.36,0,0,1-4,.6,15.9,15.9,0,0,1-5.5-.8,13.19,13.19,0,0,1-4.4-2.3A14.17,14.17,0,0,1,79.7,39a22,22,0,0,1-2.3-4.6A30.44,30.44,0,0,1,76.1,29a38.14,38.14,0,0,1-.4-5.9,32,32,0,0,1,.7-6.3,26.33,26.33,0,0,1,1.7-5.4,18.91,18.91,0,0,1,6.2-7.7A15.64,15.64,0,0,1,93.5.87a18.41,18.41,0,0,1,4.1.5,11.45,11.45,0,0,1,3.6,1.5,9.55,9.55,0,0,1,2.9,2.4,11.3,11.3,0,0,1,1.9,3.2L98.7,12a4.91,4.91,0,0,0-2.3-2.2,7.73,7.73,0,0,0-7.1.5A12.27,12.27,0,0,0,86.4,13a20.57,20.57,0,0,0-2.1,4.2,22.42,22.42,0,0,0-1,5.6,26.84,26.84,0,0,0,.5,6.6,14.49,14.49,0,0,0,2,4.7,8.57,8.57,0,0,0,2.9,2.8,7.3,7.3,0,0,0,3.5.9,8.18,8.18,0,0,0,2.1-.3,9.49,9.49,0,0,0,2.1-.9,8.06,8.06,0,0,0,1.8-1.2,8.94,8.94,0,0,0,1.4-1.3Z"/><path class="cls-2" d="M141.2,44.47h-8.7V27.17H117.7l.1,17.5h-8.7V.77h8.3l.1,17.9h14.8V.77h8.3Z"/><path class="cls-2" d="M153,19.07h13.8v8.7l-13.8-.1v8.9h17.4V45H144.5l.1-44h25.8v8.4H152.9Z"/><path class="cls-2" d="M195.3,24.47a18.31,18.31,0,0,1,2.6,3.6,15.22,15.22,0,0,1,1.6,4,14.28,14.28,0,0,1,.4,4.1,11.22,11.22,0,0,1-1,4,8.07,8.07,0,0,1-1.7,2.4,7.76,7.76,0,0,1-2.4,1.6,24.69,24.69,0,0,1-2.9,1,15.06,15.06,0,0,1-7.2-.3,18.51,18.51,0,0,1-4.2-1.7,23.29,23.29,0,0,1-3.8-2.6,15.93,15.93,0,0,1-3-3.4l5.3-5.1a12.86,12.86,0,0,0,1.9,2.1,12.42,12.42,0,0,0,2.3,1.7,13.44,13.44,0,0,0,2.4,1.2,6.82,6.82,0,0,0,2.3.5,4.42,4.42,0,0,0,1.7-.2,2.26,2.26,0,0,0,1.1-.8,2.2,2.2,0,0,0,.5-1.2,3.33,3.33,0,0,0,.1-1.4,6.75,6.75,0,0,0-.2-1.4,5,5,0,0,0-.5-1.3,10.61,10.61,0,0,0-2-2.4,32.73,32.73,0,0,0-2.7-2.4c-1-.8-2-1.6-3.1-2.4s-2.1-1.7-3.1-2.5A33.76,33.76,0,0,1,177,19a12.59,12.59,0,0,1-1.9-2.8,10.52,10.52,0,0,1-1-4.9,10.22,10.22,0,0,1,1.3-4.6,10.91,10.91,0,0,1,2.3-2.9,11.73,11.73,0,0,1,3-1.9,13.31,13.31,0,0,1,3.4-1,14.47,14.47,0,0,1,3.6-.1,15.53,15.53,0,0,1,3.6.8,12.62,12.62,0,0,1,3.3,1.6,13.28,13.28,0,0,1,1.6,1.2l1.8,1.5c.6.5,1.1,1.1,1.6,1.6a6,6,0,0,1,1.1,1.4l-6.3,4.9a14.71,14.71,0,0,0-2.3-2.6,11.14,11.14,0,0,0-2.4-1.6,7.54,7.54,0,0,0-2.4-.8,7.74,7.74,0,0,0-2.1-.1,3.82,3.82,0,0,0-1.6.6,2.73,2.73,0,0,0-.9,1.2,2.51,2.51,0,0,0,.1,1.9,7.65,7.65,0,0,0,1.4,2.1,24.91,24.91,0,0,0,2.3,2.2c.9.8,1.8,1.6,2.8,2.4s2,1.7,3,2.6A26.21,26.21,0,0,1,195.3,24.47Z"/><path class="cls-2" d="M228.3,1.47v8.2h-8.4l.1,35.1h-8.7v-35H203V1.67Z"/><path class="cls-2" d="M247.5,16.37,256.8.47l7.4,3.2-12.3,22.4v19h-8.7l.2-19.1L230.8,3.77l7.4-3.2Z"/></g></g></g></g></g></svg>