<?xml version="1.0" encoding="UTF-8"?>
<!DOCTYPE svg PUBLIC "-//W3C//DTD SVG 1.1//EN" "http://www.w3.org/Graphics/SVG/1.1/DTD/svg11.dtd">
<svg xmlns="http://www.w3.org/2000/svg" xmlns:xlink="http://www.w3.org/1999/xlink" version="1.1" width="421px" height="307px" viewBox="-0.5 -0.5 421 307"><defs/><g><rect x="0" y="0" width="419.1" height="44" fill="rgb(255, 255, 255)" stroke="#007fff" stroke-width="1.1" pointer-events="all"/><g fill="#007FFF" font-family="Helvetica" text-anchor="middle" font-size="13.200000000000001px"><text x="209.05" y="27">Orchestration layer</text></g><rect x="0" y="111.1" width="419.1" height="44" fill="rgb(255, 255, 255)" stroke="#007fff" stroke-width="1.1" pointer-events="all"/><g fill="#007FFF" font-family="Helvetica" text-anchor="middle" font-size="13.200000000000001px"><text x="209.05" y="138.1">Integration layer</text></g><rect x="5.5" y="221.1" width="97.9" height="84.7" fill="rgb(255, 255, 255)" stroke="#007fff" stroke-width="1.1" pointer-events="all"/><g fill="#007FFF" font-family="Helvetica" text-anchor="middle" font-size="13.200000000000001px"><text x="53.95" y="260.75">Integrated</text><text x="53.95" y="276.15">service</text></g><path d="M 203.5 52.25 L 214.5 52.25 L 214.5 81.95 L 226.05 81.95 L 209 102.85 L 191.95 81.95 L 203.5 81.95 Z" fill="#007fff" stroke="#007fff" stroke-width="1.1" stroke-miterlimit="10" pointer-events="all"/><rect x="158.4" y="221.1" width="97.9" height="84.7" fill="rgb(255, 255, 255)" stroke="#007fff" stroke-width="1.1" pointer-events="all"/><g fill="#007FFF" font-family="Helvetica" text-anchor="middle" font-size="13.200000000000001px"><text x="206.85" y="260.75">Integrated</text><text x="206.85" y="276.15">service</text></g><rect x="310.2" y="221.1" width="97.9" height="84.7" fill="rgb(255, 255, 255)" stroke="#007fff" stroke-width="1.1" pointer-events="all"/><g fill="#007FFF" font-family="Helvetica" text-anchor="middle" font-size="13.200000000000001px"><text x="358.65" y="260.75">Integrated</text><text x="358.65" y="276.15">service</text></g><path d="M 50.6 180.95 L 39.05 180.95 L 56.1 160.05 L 73.15 180.95 L 61.6 180.95 L 61.6 195.25 L 73.15 195.25 L 56.1 216.15 L 39.05 195.25 L 50.6 195.25 Z" fill="#007fff" stroke="#007fff" stroke-width="1.1" stroke-miterlimit="10" pointer-events="all"/><path d="M 203.5 180.95 L 191.95 180.95 L 209 160.05 L 226.05 180.95 L 214.5 180.95 L 214.5 195.25 L 226.05 195.25 L 209 216.15 L 191.95 195.25 L 203.5 195.25 Z" fill="#007fff" stroke="#007fff" stroke-width="1.1" stroke-miterlimit="10" pointer-events="all"/><path d="M 353.1 180.95 L 341.55 180.95 L 358.6 160.05 L 375.65 180.95 L 364.1 180.95 L 364.1 195.25 L 375.65 195.25 L 358.6 216.15 L 341.55 195.25 L 353.1 195.25 Z" fill="#007fff" stroke="#007fff" stroke-width="1.1" stroke-miterlimit="10" pointer-events="all"/></g></svg>