<?xml version="1.0" encoding="UTF-8"?>
<!DOCTYPE svg PUBLIC "-//W3C//DTD SVG 1.1//EN" "http://www.w3.org/Graphics/SVG/1.1/DTD/svg11.dtd">
<svg xmlns="http://www.w3.org/2000/svg" xmlns:xlink="http://www.w3.org/1999/xlink" version="1.1" width="299px" height="175px" viewBox="-0.5 -0.5 299 175"><defs/><g><rect x="0" y="0" width="298" height="36" fill="#007fff" stroke="#007fff" pointer-events="all"/><g fill="#FCFDFF" font-family="Helvetica" text-anchor="middle" font-size="15px"><text x="148.5" y="24">Orchestration layer</text></g><ellipse cx="250" cy="136" rx="38" ry="38" fill="none" stroke="#007fff" pointer-events="all"/><g fill="#007FFF" font-family="Helvetica" text-anchor="middle" font-size="15px"><text x="249.5" y="142">SDK</text></g><ellipse cx="149" cy="136" rx="38" ry="38" fill="none" stroke="#007fff" pointer-events="all"/><g fill="#007FFF" font-family="Helvetica" text-anchor="middle" font-size="15px"><text x="148.5" y="142">SDK</text></g><ellipse cx="48" cy="136" rx="38" ry="38" fill="none" stroke="#007fff" pointer-events="all"/><g fill="#007FFF" font-family="Helvetica" text-anchor="middle" font-size="15px"><text x="47.5" y="142">SDK</text></g><path d="M 42.5 60.5 L 32 60.5 L 47.5 41.5 L 63 60.5 L 52.5 60.5 L 52.5 73.5 L 63 73.5 L 47.5 92.5 L 32 73.5 L 42.5 73.5 Z" fill="#007fff" stroke="#007fff" stroke-miterlimit="10" pointer-events="all"/><path d="M 143.5 60.5 L 133 60.5 L 148.5 41.5 L 164 60.5 L 153.5 60.5 L 153.5 73.5 L 164 73.5 L 148.5 92.5 L 133 73.5 L 143.5 73.5 Z" fill="#007fff" stroke="#007fff" stroke-miterlimit="10" pointer-events="all"/><path d="M 244.5 60.5 L 234 60.5 L 249.5 41.5 L 265 60.5 L 254.5 60.5 L 254.5 73.5 L 265 73.5 L 249.5 92.5 L 234 73.5 L 244.5 73.5 Z" fill="#007fff" stroke="#007fff" stroke-miterlimit="10" pointer-events="all"/></g></svg>