<svg width="150.446" height="145.001" fill="none" xmlns="http://www.w3.org/2000/svg"><g clip-path="url(#a)"><path d="M145.071 5.384c-7.279-7.28-19.197-7.163-26.621.266a19.175 19.175 0 0 0-5.595 12.311c-22.606 4.214-63.168 11.724-65.773 12.266-3.293.682-6.582 1.352-9.907 2.024a19.015 19.015 0 0 0-3.742-5.285c-7.542-7.547-19.893-7.422-27.583.273-7.69 7.696-7.816 20.056-.274 27.6 5.949 5.952 14.893 7.13 22.18 3.58 5.13 5.87 13.512 15.445 17.477 20.014.06.07 20.715 25.051 30.485 36.851-6.028 7.218-5.76 17.861.88 24.51 7.035 7.045 18.555 6.924 25.729-.257 7.174-7.182 7.29-18.706.255-25.745-5.774-5.776-14.571-6.741-21.505-2.92-13.493-16.112-41.693-49.952-43.46-51.98-1.36-1.568-2.72-3.142-4.078-4.722a20.228 20.228 0 0 0 2.895-3.908l.301.09 25.175 8.295a16.17 16.17 0 0 0 4.582 13.447c6.365 6.37 16.787 6.263 23.281-.232s6.597-16.925.232-23.294-16.788-6.263-23.28.232a17.044 17.044 0 0 0-2.628 3.394l-25.395-8.217c.225-1.264.327-2.548.303-3.832 7.384-1.555 22.825-4.833 29.737-6.27.087-.014 28.51-5.142 45.223-8.165a18.253 18.253 0 0 0 4.211 6.573c7.277 7.28 19.195 7.163 26.619-.266 7.424-7.428 7.551-19.352.276-26.633z" fill="#ee4e40"/></g><defs><clipPath id="a"><path fill="#fff" d="M0 0h597v145H0Z"/></clipPath></defs></svg>