<?xml version="1.0" encoding="UTF-8"?>
<svg width="378px" height="357px" viewBox="0 0 378 357" version="1.1" xmlns="http://www.w3.org/2000/svg" xmlns:xlink="http://www.w3.org/1999/xlink">
    <title>user_avatar_bg</title>
    <g id="Page-1" stroke="none" stroke-width="1" fill-rule="evenodd">
        <g id="user_avatar_bg" fill-rule="nonzero">
            <rect id="Rectangle" fill="#FFFFFF" x="0" y="0" width="378" height="357"></rect>
            <g id="user_avatar" transform="translate(45.000000, 85.000000)" fill="#9C9B9D">
                <path d="M11.543308,272 L276.456354,272 C279.994466,272 283.293689,270.554909 285.507472,268.038178 C287.431342,265.855464 288.28253,263.0859 287.917238,260.24095 C281.704959,211.838524 251.945859,171.504715 211.205973,150 C193.986236,167.221633 170.214442,177.888166 144.000411,177.888166 C117.78638,177.888166 94.0134264,167.221633 76.7948488,150 C36.0538037,171.498917 6.28890525,211.838524 0.082424685,260.24095 C-0.282867052,263.0859 0.57411896,265.861263 2.49219049,268.038178 C4.70597439,270.554909 8.00519658,272 11.543308,272 Z" id="Path"></path>
                <path d="M83.9223089,138.419321 C85.4780846,140.031301 87.1027213,141.56718 88.784546,143.053477 C103.473965,156.035801 122.791028,164 144,164 C165.208972,164 184.526035,156.028883 199.215454,143.053477 C200.897279,141.56718 202.523082,140.030148 204.077691,138.419321 C205.626464,136.80734 207.13789,135.158462 208.559446,133.427716 C220.068453,119.347676 227,101.468298 227,82.0011533 C227,36.7826759 189.761752,0 143.998833,0 C98.2359136,0 61,36.7884413 61,82 C61,101.467145 67.9315475,119.347676 79.4405537,133.426563 C80.8562751,135.158462 82.3665332,136.801575 83.9223089,138.419321 Z" id="Path"></path>
            </g>
        </g>
    </g>
</svg>