<svg width="720" height="164" viewBox="0 0 720 164" fill="none" xmlns="http://www.w3.org/2000/svg">
<path d="M159.4 109.4C159.9 101.1 156.6 94.6 149.4 90.5C142.5 86.5 133.9 87.2 127.7 92.3C125.4 94.3 123.6 96.9 121.5 99.1C121.2 99.3 120.7 99.2 120.2 99.1C114.6 97.7 96.2 93 90.3 91.4C90.6 88.7 90.3 85.9 89.5 83.3C86.6 73.7 77 67.5 67 68.9C66 65.3 61.5 49.4 60.7 46.5C59.8 43.4 58.9 40.3 57.9 37.1L59 36.4C66.2 32.3 70 24.2 68.5 16C67.2 8.3 61.3 2.1 53.6 0.5C51.2 0 48.6 0.2 46.1 0C44.5 0.5 43 0.9 41.4 1.4C41.2 1.5 41 1.7 40.8 1.8C33.4 5.6 29.6 11.8 29.7 20C29.8 27.9 34.8 35 42.3 37.6C45.2 38.6 48.3 38.8 51.3 39.4C51.6 39.5 51.8 40.1 52 40.6C53.7 46.2 59.2 64.7 60.8 70.3C60.9 70.4 60.9 70.6 60.9 70.7C51.7 75.1 47.1 85.5 50.1 95.2C50.8 97.4 51.8 99.5 53.2 101.3C50.2 104.5 42.8 113.1 40.7 115.4C38.3 118.1 35.9 120.7 33.4 123.4C32.9 123.1 32.5 123 32.1 122.7C24 118.3 14.7 119.3 7.40001 125.3C0.800015 131 -1.69999 140.1 1.10001 148.3C2.00001 150.9 3.70001 153.2 5.00001 155.7C6.30001 156.9 7.70001 158.1 9.00001 159.3C9.30001 159.4 9.50001 159.5 9.80001 159.6C17.6 164.4 25.6 164.5 33.3 159.7C40.8 155.1 44.6 146.3 42.7 137.7C42 134.4 40.4 131.3 39.2 128.2C39.1 127.8 39.5 127.4 40 126.9C44.3 122.2 54 111.4 58.3 106.7C58.4 106.6 58.4 106.5 58.5 106.4C68 112.6 80.7 110 86.9 100.5C87.5 99.5 88.1 98.5 88.6 97.4C93.1 98.6 107.8 102.6 110.6 103.4C113.8 104.2 116.9 105 120.1 105.9C120.1 106.3 120.1 106.8 120.1 107.2C119.9 115.5 124.9 123 132.7 125.9C140.1 128.8 148.4 126.9 153.8 121.1C155.5 119.3 156.7 116.9 158.1 114.8C158.5 113.2 158.9 111.6 159.3 110C159.4 110 159.4 109.7 159.4 109.4Z" fill="#FF9A00"/>
<path d="M197.8 82.3C197.8 55.5 219.5 33.8 246.2 33.8C273 33.8 294.7 55.5 294.7 82.3C294.7 109 273 130.5 246.2 130.5C219.5 130.6 197.8 109 197.8 82.3ZM215.2 82.3C215.2 99.5 229.1 113.4 246.1 113.4C263.1 113.4 277 99.5 277 82.3C277 65 263.1 51.1 246.1 51.1C229.1 51.1 215.2 65.1 215.2 82.3Z" fill="white"/>
<path d="M307.5 129.3V69.7H323.9V74.5C328.6 69.8 335.6 68.3 340.3 68.3H344.2L340.3 84.6H337.8C330.1 84.6 323.9 90.6 323.9 97.7V129.3H307.5V129.3Z" fill="white"/>
<path d="M357.5 121.6L357.4 121.5C351.7 115.7 348.4 107.8 348.4 99.5C348.4 91.2 351.6 83.3 357.4 77.4C363.3 71.7 371 68.4 379.5 68.4C388.1 68.4 395.9 71.5 401.5 77.4C402.8 78.7 403.8 79.9 404.7 81L406.3 83.3L393.6 92.8L391.8 90.3C388.7 86.1 384.1 83.5 379.6 83.5C371.4 83.5 364.4 90.8 364.4 99.4C364.4 108 371.4 115.3 379.6 115.3C384.2 115.3 388.7 112.7 391.8 108.3L393.5 106L406.8 115.5L404.8 118C404.5 118.4 404.2 118.8 403.8 119.2C403.2 120 402.4 120.9 401.6 121.7C395.9 127.4 388.1 130.7 379.6 130.7C371.2 130.6 363.4 127.3 357.5 121.6Z" fill="white"/>
<path d="M458.3 129.3V97.4C458.3 90.4 452.7 84.9 445.7 84.9C438.9 84.9 433.1 90.5 433.1 97.4V129.3H416.8V33.9H433.1V74C437.1 70 441.4 68.5 445.7 68.5C453.5 68.5 460.8 71.5 466.2 76.8C471.7 82.4 474.7 89.7 474.7 97.3V129.2H458.3V129.3Z" fill="white"/>
<path d="M513.9 130.7C510.1 130.7 506.2 129.8 502.6 128.1C499.2 126.7 496.1 124.3 493.2 121.3C488.7 116.4 485.9 109.9 485.3 103.1C485.2 101.9 485 100.8 485 99.5C485 96.9 485.4 94.2 486 91.4C487.2 86.2 489.6 81.4 493.2 77.7C495.8 74.8 498.8 72.6 502.6 70.8C506.1 69.1 510 68.3 514 68.3C518.2 68.3 521.9 69.1 525.4 70.8C529.3 72.6 532.4 75 534.8 77.7C538.2 81.3 540.8 86 542.1 91.4C542.8 93.9 543 96.5 543 99.5C543 100.5 543 101.6 543 102.5H499.3L499.4 103.4C501.1 111.5 507.2 117.3 514 117.3H514.1C517.9 117 522 114.7 524.5 112.6L525.9 111.4L536.7 120.8L534.7 122.5C533.3 123.8 531.5 125.4 529.5 126.4H529.4C524.7 129.1 519.6 130.6 513.9 130.7V130.7V130.7ZM501.2 90.9L500.7 91.9H527.6L527.1 90.9C524.1 85.3 519.2 81.9 514.1 81.9C509 81.9 503.9 85.5 501.2 90.9Z" fill="white"/>
<path d="M568.8 129.2C562.3 127.9 556.2 125 551.4 120.7L549.5 119.1L559.3 108.3L561.1 110C566.8 114.8 571.5 115.7 574.5 115.7C576.7 115.7 578.3 115.4 579.8 114.7C581.7 113.9 582.7 112.6 582.7 110.8C582.7 109.2 581.8 107.3 574.1 106C567.1 104.6 562.7 103.1 560.6 102C557.9 100.4 555.7 98.4 554.1 95.8C552.5 93.2 551.8 90.3 551.8 87.1C551.8 83.7 552.8 80.5 554.9 77.5C556.6 75 559.1 73.1 562.7 71.3C565.7 69.9 569.1 69.2 573.1 69.2C574.5 69.2 576 69.3 577.3 69.5C583 70.4 588.7 72.9 593.4 76.5L595.4 78.1L586.2 88.8L584.4 87.4C579.8 83.8 575.9 83.1 573.6 83.1C571.9 83.1 570.4 83.4 568.9 84C567.2 84.9 566.3 86.3 566.3 87.2C566.3 89 567.6 90.3 574.4 91.9C583.2 94 586.1 95 587.9 95.8C591.5 97.9 593.1 99.6 594.4 101.3C596.4 104 597.3 107.4 597.3 111.1C597.3 114.9 596.3 118.3 594.3 121C592.3 123.7 589.7 126.1 586 127.9C583 129.3 579.1 130.1 575.2 130.1C573.1 129.8 571.1 129.5 568.8 129.2Z" fill="white"/>
<path d="M633.8 129.3C628.1 129.3 622.7 127.1 618.8 123.2C614.8 119.2 612.7 114 612.7 108.2V83.5H604.4V70.1H612.7V46.7H628.2V70.1H645.5V83.5H628.2V108C628.2 111.2 631.1 114.2 633.9 114.2H645.2L649.4 129.3H633.8Z" fill="white"/>
<path d="M664.8 163.9L679 129.4L655.2 69.7H672.6L687.4 106.8L702.5 69.7H719.8L681.8 163.8H664.8V163.9Z" fill="white"/>
</svg>
