<svg width="266" height="257" viewBox="0 0 266 257" fill="none" xmlns="http://www.w3.org/2000/svg">
<path d="M256.365 9.50582C243.502 -3.34866 222.441 -3.14036 209.321 9.97448C203.493 15.7789 199.978 23.5056 199.434 31.711C159.485 39.15 87.8046 52.4099 83.2017 53.3658C77.3822 54.5709 71.57 55.7538 65.6945 56.9402C64.0406 53.4743 61.8041 50.3179 59.0825 47.6081C45.754 34.2849 23.9266 34.5044 10.3377 48.0916C-3.25133 61.6789 -3.47457 83.501 9.85395 96.8167C20.3657 107.328 36.1724 109.407 49.0506 103.14C58.115 113.502 72.9281 130.407 79.9347 138.475C80.039 138.598 116.542 182.703 133.807 203.536C123.154 216.279 123.626 235.07 135.362 246.809C147.794 259.247 168.152 259.033 180.829 246.355C193.507 233.675 193.712 213.329 181.28 200.902C171.076 190.704 155.53 189 143.277 195.746C119.433 167.301 69.5978 107.555 66.476 103.973C64.0723 101.206 61.6698 98.4272 59.2684 95.6375C61.2453 93.5519 62.9634 91.2352 64.3849 88.7381L64.917 88.8979L109.405 103.541C108.856 107.854 109.3 112.234 110.704 116.349C112.107 120.464 114.432 124.203 117.502 127.283C128.75 138.527 147.169 138.341 158.644 126.874C170.12 115.407 170.302 96.9915 159.054 85.7475C147.805 74.5036 129.386 74.6895 117.915 86.1567C116.12 87.9505 114.56 89.9639 113.271 92.1487L68.3923 77.6429C68.7911 75.4104 68.9707 73.1443 68.9281 70.877C81.9776 68.1322 109.263 62.3446 121.479 59.808C121.632 59.782 171.861 50.7288 201.395 45.3913C203.009 49.7505 205.548 53.7092 208.837 56.996C221.697 69.8506 242.758 69.6422 255.877 56.5275C268.997 43.4125 269.221 22.3603 256.365 9.50582Z" fill="#EE4E40"/>
</svg>
