<svg width="597" height="145" fill="none" xmlns="http://www.w3.org/2000/svg"><g clip-path="url(#clip0_14_38)"><path d="M145.071 5.384c-7.279-7.28-19.197-7.163-26.621.266a19.175 19.175 0 00-5.595 12.311c-22.606 4.214-63.168 11.724-65.773 12.266-3.293.682-6.582 1.352-9.907 2.024a19.015 19.015 0 00-3.742-5.285c-7.542-7.547-19.893-7.422-27.583.273-7.69 7.696-7.816 20.056-.274 27.6 5.949 5.952 14.893 7.13 22.18 3.58 5.13 5.87 13.512 15.445 17.477 20.014.06.07 20.715 25.051 30.485 36.851-6.028 7.218-5.76 17.861.88 24.51 7.035 7.045 18.555 6.924 25.729-.257 7.174-7.182 7.29-18.706.255-25.745-5.774-5.776-14.571-6.741-21.505-2.92-13.493-16.112-41.693-49.952-43.46-51.98-1.36-1.568-2.72-3.142-4.078-4.722a20.228 20.228 0 002.895-3.908l.301.09 25.175 8.295a16.17 16.17 0 004.582 13.447c6.365 6.37 16.787 6.263 23.281-.232s6.597-16.925.232-23.294-16.788-6.263-23.28.232a17.044 17.044 0 00-2.628 3.394l-25.395-8.217c.225-1.264.327-2.548.303-3.832 7.384-1.555 22.825-4.833 29.737-6.27.087-.014 28.51-5.142 45.223-8.165a18.253 18.253 0 004.211 6.573c7.277 7.28 19.195 7.163 26.619-.266 7.424-7.428 7.551-19.352.276-26.633z" fill="#EE4E40"/><path d="M225.261 114.254l-8.288-21.811h-26.798l-8.402 21.811h-16.236l31.121-80.886h13.729l31.224 80.886h-16.35zm-14.194-36.807l-7.494-19.654-7.494 19.654h14.988zm84.816-8.408c5.11 5.227 7.949 12.042 7.949 19.198 0 7.157-2.839 13.975-7.949 19.201-5.108 5.111-11.922 7.839-19.189 7.839-4.769 0-9.083-1.704-12.831-5.113l-.567-.455v34.761h-13.739V62.224h13.739v4.089l.567-.57c4.089-3.974 8.745-4.541 12.831-4.541a27.243 27.243 0 0119.189 7.837zm-5.79 19.198c0-7.495-6.132-13.744-13.399-13.744-7.266 0-13.398 6.249-13.398 13.745 0 7.386 6.132 13.746 13.398 13.746 7.267 0 13.399-6.36 13.399-13.746v-.001zm69.148-19.198c5.108 5.227 7.946 12.042 7.946 19.198 0 7.157-2.838 13.975-7.946 19.201-5.11 5.111-11.924 7.839-19.191 7.839-4.769 0-9.083-1.704-12.829-5.113l-.569-.455v34.761h-13.739V62.224h13.739v4.089l.569-.57c4.087-3.974 8.742-4.541 12.829-4.541a27.25 27.25 0 0119.191 7.837zm-5.793 19.198c0-7.495-6.131-13.744-13.398-13.744-7.266 0-13.398 6.249-13.398 13.745 0 7.386 6.132 13.746 13.398 13.746 7.267 0 13.398-6.36 13.398-13.746v-.001zm23.389 26.017V30.869H391.6v83.385h-14.763zm30.656-67.026a8.24 8.24 0 012.613-6.135 8.673 8.673 0 016.245-2.612 8.733 8.733 0 016.357 2.462 8.746 8.746 0 01-6.357 15.024c-4.883.008-8.858-3.967-8.858-8.74zm1.474 67.026V62.217h14.76v52.037h-14.76zm68.013 0V86.422c0-6.135-4.883-10.907-11.012-10.907-5.896 0-11.014 4.885-11.014 10.907v27.832H440.76V62.217h14.194v3.748c3.52-3.52 7.266-4.77 11.014-4.77a24.996 24.996 0 0117.956 7.288 25.026 25.026 0 017.364 17.932v27.839H476.98zm47.575 0a18.363 18.363 0 01-13.055-5.339c-3.521-3.522-5.338-8.067-5.338-13.062V74.266h-7.266V62.569h7.266V42.115h13.512v20.454h15.101v11.7h-15.101v21.355c0 2.84 2.499 5.452 4.996 5.452h9.88l3.638 13.178h-13.633zm58.131 0V86.422c0-6.135-4.88-10.907-11.012-10.907-5.896 0-11.014 4.885-11.014 10.907v27.832h-14.194V30.869h14.194v35.103c3.52-3.52 7.266-4.77 11.014-4.77a24.997 24.997 0 0123.444 15.512 25.014 25.014 0 011.876 9.708v27.832h-14.308z" fill="#ffffff"/></g><defs><clipPath id="clip0_14_38"><path fill="#fff" d="M0 0h597v145H0z"/></clipPath></defs></svg>
