<?xml version="1.0" standalone="no"?>
<!DOCTYPE svg PUBLIC "-//W3C//DTD SVG 20010904//EN"
 "http://www.w3.org/TR/2001/REC-SVG-20010904/DTD/svg10.dtd">
<svg version="1.0" xmlns="http://www.w3.org/2000/svg"
 width="596.000000pt" height="596.000000pt" viewBox="0 0 596.000000 596.000000"
 preserveAspectRatio="xMidYMid meet">
<metadata>
Created by potrace 1.11, written by Peter Selinger 2001-2013
</metadata>
<g transform="translate(0.000000,596.000000) scale(0.100000,-0.100000)"
fill="#000000" stroke="none">
<path d="M3446 5623 c-145 -30 -283 -115 -382 -235 -17 -21 -79 -131 -92 -163
-11 -28 -15 -42 -28 -104 -3 -14 -7 -28 -10 -33 -7 -11 -6 -175 1 -213 11 -57
26 -106 47 -153 12 -26 25 -54 29 -63 8 -18 -15 -45 -266 -314 -16 -18 -75
-81 -130 -140 -55 -60 -127 -137 -159 -172 -33 -36 -73 -80 -89 -98 l-28 -34
-42 16 c-103 37 -274 47 -370 23 -230 -59 -411 -225 -478 -439 -101 -327 58
-673 371 -804 36 -15 76 -30 90 -33 182 -38 332 -17 480 64 60 34 159 115 185
153 16 22 23 25 49 18 26 -6 184 -57 236 -76 61 -22 518 -175 529 -177 20 -4
28 -25 35 -96 7 -71 42 -177 81 -248 l25 -45 -353 -353 -354 -353 -62 20
c-233 72 -477 16 -649 -148 -91 -88 -170 -224 -187 -322 -3 -17 -8 -46 -11
-63 -21 -109 11 -282 73 -401 33 -63 137 -182 194 -222 255 -181 610 -155 834
62 42 41 85 90 85 98 0 2 11 20 25 40 82 123 113 355 67 510 -10 33 -46 119
-63 148 -6 11 -8 22 -5 25 4 4 165 166 359 360 392 394 342 358 462 331 138
-30 292 -8 425 62 83 44 90 49 161 119 160 159 225 375 178 596 -17 79 -50
164 -75 194 -7 8 -13 19 -13 23 0 16 -77 104 -130 150 -58 50 -191 119 -251
131 -19 4 -46 10 -60 13 -33 8 -175 8 -220 1 -152 -26 -308 -120 -408 -247
l-18 -24 -400 133 c-219 73 -401 134 -403 137 -3 2 -6 22 -7 46 -4 97 -35 214
-75 282 l-22 36 24 27 c13 15 47 51 75 82 28 30 64 69 80 86 157 170 206 223
230 249 267 291 271 295 283 295 5 0 22 -5 38 -12 131 -53 343 -49 477 11 23
10 44 18 49 19 4 1 13 6 20 12 6 5 39 30 72 54 220 161 313 459 226 726 -71
215 -258 383 -486 436 -51 12 -206 10 -269 -3z m254 -318 c131 -52 215 -170
224 -315 3 -51 -38 -190 -56 -190 -5 0 -8 -5 -8 -11 0 -21 -82 -91 -138 -117
-48 -23 -70 -27 -142 -27 -103 1 -171 28 -239 96 -147 147 -133 378 30 512 87
70 226 92 329 52z m-1528 -1679 c186 -54 287 -264 217 -451 -30 -82 -112 -163
-194 -195 -169 -64 -356 12 -432 176 -88 190 8 408 210 472 62 20 125 20 199
-2z m1975 -660 c107 -24 231 -137 248 -225 2 -12 6 -25 10 -30 12 -20 6 -133
-10 -183 -32 -104 -130 -200 -231 -227 -39 -10 -125 -15 -154 -8 -119 28 -200
93 -251 202 -25 53 -27 69 -25 145 2 59 10 99 24 131 24 55 102 139 152 165
67 34 166 47 237 30z m-1496 -1687 c125 -39 221 -142 245 -261 19 -92 -9 -211
-66 -283 -39 -49 -68 -71 -137 -102 -86 -39 -185 -37 -276 6 -73 35 -131 93
-168 169 -19 39 -23 64 -24 142 0 85 3 100 28 149 47 89 122 151 212 177 52
16 143 17 186 3z"/>
<path d="M2947 5613 c-1 0 -54 -3 -117 -6 -63 -3 -115 -6 -115 -7 0 0 -18 -3
-40 -5 -22 -2 -56 -6 -75 -10 -19 -3 -48 -8 -65 -11 -290 -46 -608 -163 -865
-319 -95 -57 -222 -144 -270 -184 -14 -11 -30 -24 -35 -28 -45 -34 -155 -135
-225 -208 -119 -122 -120 -124 -120 -135 0 -5 -3 -10 -8 -10 -8 0 -92 -109
-157 -205 -90 -131 -170 -280 -235 -435 -25 -58 -45 -107 -45 -110 -1 -3 -15
-48 -32 -100 -30 -93 -65 -229 -77 -300 -3 -19 -7 -44 -10 -55 -22 -112 -28
-188 -29 -395 -1 -165 5 -298 17 -370 2 -14 10 -59 16 -100 7 -41 21 -108 31
-148 11 -40 21 -80 23 -90 1 -9 5 -24 8 -32 3 -8 11 -33 17 -55 70 -224 193
-478 330 -675 181 -261 414 -493 659 -657 48 -32 88 -61 90 -65 2 -5 7 -8 12
-8 5 0 41 -19 82 -43 106 -63 111 -64 103 -25 -17 76 -3 270 25 343 8 22 2 29
-83 86 -159 109 -300 232 -432 380 -43 48 -175 223 -175 232 0 2 -17 31 -39
63 -113 171 -233 472 -276 695 -12 61 -25 139 -32 194 -10 78 -10 402 0 485
15 131 18 154 27 170 5 10 7 19 5 22 -9 9 65 275 95 343 5 11 23 54 40 95 46
112 171 334 221 394 5 6 32 41 59 78 76 103 222 251 347 352 268 218 590 373
928 445 91 19 238 38 313 40 17 1 32 6 32 12 0 14 49 116 80 164 40 63 136
168 162 178 27 9 0 16 -80 19 -46 2 -84 2 -85 1z"/>
<path d="M4305 5203 c21 -81 24 -107 21 -213 -3 -107 -6 -134 -21 -179 -3 -12
6 -27 31 -47 259 -212 450 -453 594 -749 61 -126 131 -308 144 -375 3 -14 10
-43 16 -65 21 -81 25 -99 50 -280 9 -64 6 -463 -4 -505 -3 -14 -8 -41 -10 -60
-2 -20 -7 -47 -10 -60 -3 -14 -8 -36 -10 -50 -20 -109 -87 -329 -109 -357 -5
-7 -7 -13 -4 -13 7 0 -20 -58 -90 -195 -51 -100 -182 -305 -195 -305 -4 0 -8
-5 -8 -11 0 -6 -6 -16 -12 -23 -7 -8 -33 -38 -58 -67 -104 -125 -335 -334
-415 -376 -16 -9 -32 -19 -35 -22 -12 -16 -150 -96 -248 -144 -199 -97 -358
-150 -564 -188 -32 -6 -58 -14 -59 -18 -4 -52 -13 -106 -26 -151 -9 -30 -17
-60 -19 -66 -3 -19 -36 -87 -61 -127 l-23 -37 47 5 c81 9 122 16 257 40 68 13
163 38 239 62 45 15 87 27 93 29 55 10 390 168 456 215 14 11 29 19 33 19 12
0 168 111 265 188 81 65 265 242 336 323 47 54 192 251 231 315 110 180 247
485 278 620 2 10 13 53 24 94 75 279 101 626 67 905 -11 85 -18 139 -22 160
-2 11 -7 34 -10 50 -4 26 -17 84 -30 138 -73 308 -236 646 -440 917 -108 143
-249 294 -360 385 -26 22 -55 47 -64 55 -36 35 -259 190 -273 190 -5 0 -6 -12
-2 -27z"/>
</g>
</svg>
